<svg width="34" height="20" viewBox="0 0 34 20" fill="none" xmlns="http://www.w3.org/2000/svg">
<path d="M18.3267 19.457L33.4568 4.30738C33.8071 3.95699 34 3.48925 34 2.99051C34 2.49177 33.8071 2.02402 33.4568 1.67363L32.3429 0.55797C31.617 -0.168 30.4372 -0.168 29.7124 0.55797L17.007 13.2795L4.28756 0.543853C3.93734 0.193461 3.47046 -1.33449e-06 2.97263 -1.35625e-06C2.47424 -1.37803e-06 2.00737 0.193461 1.65686 0.543853L0.543167 1.65952C0.192943 2.01018 -1.08302e-07 2.47765 -1.30102e-07 2.97639C-1.51903e-07 3.47513 0.192943 3.94287 0.543167 4.29326L15.6871 19.457C16.0385 19.8082 16.5076 20.0011 17.0062 20C17.5068 20.0011 17.9756 19.8082 18.3267 19.457Z" fill="white"/>
</svg>
