<svg width="21" height="21" viewBox="0 0 21 21" fill="none" xmlns="http://www.w3.org/2000/svg">
<path fill-rule="evenodd" clip-rule="evenodd" d="M20.9854 2.25V18.75C20.9854 19.9922 19.9783 21 18.737 21H14.7413V12.6938H17.58L17.9875 9.525H14.7413V7.5C14.7413 6.58125 14.9943 5.95781 16.3105 5.95781H17.9875V3.12656C17.6971 3.08906 16.704 3 15.5423 3C13.1253 3 11.467 4.47656 11.467 7.19063V9.52969H8.61901V12.6984H11.4717V21H2.24844C1.00711 21 0 19.9922 0 18.75V2.25C0 1.00781 1.00711 0 2.24844 0H18.737C19.9783 0 20.9854 1.00781 20.9854 2.25Z" fill="white"/>
</svg>
