<svg width="22" height="21" viewBox="0 0 22 21" fill="none" xmlns="http://www.w3.org/2000/svg">
<path fill-rule="evenodd" clip-rule="evenodd" d="M21.8804 6.1702C21.8008 4.48795 21.4169 2.99782 20.1857 1.77011C18.9591 0.542396 17.4703 0.15815 15.7896 0.0738034C14.0574 -0.0246011 8.86549 -0.0246011 7.13329 0.0738034C5.45726 0.153464 3.96851 0.537711 2.73724 1.76542C1.50597 2.99314 1.12676 4.48326 1.04249 6.16551C0.944171 7.89931 0.944171 13.096 1.04249 14.8298C1.12207 16.512 1.50597 18.0022 2.73724 19.2299C3.96851 20.4576 5.45258 20.8418 7.13329 20.9262C8.86549 21.0246 14.0574 21.0246 15.7896 20.9262C17.4703 20.8465 18.9591 20.4623 20.1857 19.2299C21.4123 18.0022 21.7962 16.512 21.8804 14.8298C21.9787 13.096 21.9787 7.90399 21.8804 6.1702ZM17.0631 6.1521C17.756 6.1521 18.3178 5.5943 18.3178 4.89587C18.3178 4.20214 17.756 3.63965 17.0631 3.63965C16.3702 3.63965 15.8084 4.20214 15.8084 4.89587C15.8084 5.58961 16.3655 6.1521 17.0631 6.1521ZM11.4638 5.11566C8.48627 5.11566 6.08459 7.51954 6.08459 10.4998C6.08459 13.48 8.48627 15.8839 11.4638 15.8839C14.4413 15.8839 16.843 13.48 16.843 10.4998C16.843 7.51954 14.4413 5.11566 11.4638 5.11566ZM11.4639 14.0001C9.53971 14.0001 7.96667 12.4303 7.96667 10.4997C7.96667 8.56912 9.53503 6.99933 11.4639 6.99933C13.3927 6.99933 14.9611 8.56912 14.9611 10.4997C14.9611 12.4303 13.388 14.0001 11.4639 14.0001ZM17.6493 18.687C18.5716 18.3169 19.2785 17.6093 19.6437 16.6908C20.1135 15.5092 20.0874 12.9244 20.0704 11.2489C20.0676 10.971 20.065 10.7181 20.065 10.5007C20.065 10.2833 20.0676 10.0305 20.0704 9.75263C20.0874 8.078 20.1135 5.49626 19.6437 4.31062C19.2738 3.38749 18.5669 2.67992 17.6493 2.31442C16.465 1.84672 13.8701 1.87164 12.1966 1.8877C11.9251 1.89031 11.6779 1.89268 11.4649 1.89268C11.2477 1.89268 10.995 1.89012 10.7175 1.88731C9.04436 1.87034 6.46499 1.84418 5.28044 2.31442C4.35816 2.6846 3.65123 3.39218 3.28606 4.31062C2.8188 5.49599 2.84369 8.09326 2.85974 9.7683C2.86235 10.04 2.86472 10.2875 2.86472 10.5007C2.86472 10.7181 2.86216 10.971 2.85935 11.2488C2.84239 12.9235 2.81626 15.5052 3.28606 16.6908C3.65591 17.614 4.36284 18.3215 5.28044 18.687C6.46472 19.1547 9.05961 19.1298 10.7331 19.1138C11.0046 19.1112 11.2518 19.1088 11.4649 19.1088C11.6821 19.1088 11.9347 19.1113 12.2123 19.1142C13.8854 19.1311 16.4648 19.1573 17.6493 18.687Z" fill="white"/>
</svg>
