<svg width="9" height="12" viewBox="0 0 9 12" fill="none" xmlns="http://www.w3.org/2000/svg">
<path fill-rule="evenodd" clip-rule="evenodd" d="M2.46797 9.50664C2.91104 10.1378 3.43018 10.8774 4.03753 11.7579C4.26099 12.0807 4.73899 12.0807 4.96247 11.7579C5.56983 10.8774 6.08897 10.1378 6.53204 9.50664C8.57326 6.59872 9 5.99078 9 4.5C9 2.01471 6.98529 0 4.5 0C2.01471 0 0 2.01471 0 4.5C0 5.99078 0.426743 6.59872 2.46797 9.50664ZM6.375 4.5C6.375 5.53554 5.53554 6.375 4.5 6.375C3.46446 6.375 2.625 5.53554 2.625 4.5C2.625 3.46446 3.46446 2.625 4.5 2.625C5.53554 2.625 6.375 3.46446 6.375 4.5Z" fill="black"/>
</svg>
