<svg width="627" height="86" viewBox="0 0 627 86" fill="none" xmlns="http://www.w3.org/2000/svg">
<path fill-rule="evenodd" clip-rule="evenodd" d="M538.221 50.0877C538.064 50.213 537.907 50.3378 537.75 50.4623C536.343 51.5723 534.909 52.6484 533.45 53.6937C531.715 54.9378 529.925 56.1097 528.082 57.1984C526.173 58.3264 524.2 59.3523 522.194 60.3063C518.905 61.8699 514.892 63.2193 511.188 62.5585C507.993 61.9887 505.303 60.4803 503.702 57.6579C502.258 55.1135 501.593 52.3214 501.487 49.435C501.487 49.4362 501.487 49.4375 501.48 49.4387C500.545 50.3243 499.577 51.1776 498.575 51.9915C497.723 52.6834 496.844 53.3472 495.962 54.0023C494.939 54.7623 493.872 55.4656 492.765 56.1031C491.642 56.7493 490.469 57.3164 489.246 57.7593C488.076 58.183 486.841 58.4543 485.588 58.4543C484.605 58.4543 483.619 58.3318 482.69 58.006C481.666 57.6468 480.813 57.0186 480.111 56.2157C479.297 55.286 478.722 54.1408 478.286 53.0026C477.693 51.4506 477.311 49.7648 477.033 48.1624C476.861 47.2868 476.729 46.4036 476.614 45.5193C476.496 44.6199 476.391 43.719 476.273 42.8195C476.159 41.9515 476.055 41.0823 475.945 40.214C475.858 39.5197 475.755 38.8165 475.601 38.1331C475.559 37.9495 475.514 37.7509 475.46 37.553C475.454 37.5568 475.452 37.5607 475.448 37.5643C474.737 38.2174 474.08 39.0157 473.49 39.7721C472.575 40.9438 471.723 42.1707 470.905 43.4079C469.87 44.9738 468.875 46.5619 467.935 48.1836C466.316 50.9761 464.565 53.9422 462.587 56.5086C461.421 58.022 459.688 59.8429 457.58 59.8429C455.236 59.8429 453.533 58.6774 452.735 56.5334C452.729 56.5222 452.728 56.5125 452.724 56.5012C451.86 53.9778 451.675 50.5145 451.607 47.8702C451.538 45.1986 451.43 42.0654 450.816 39.4559C450.734 39.1079 450.458 38.0478 450.173 37.5553C449.848 37.7566 449.417 38.1354 449.245 38.2925C448.212 39.2378 447.268 40.3731 446.41 41.4684C445.155 43.0699 443.976 44.7351 442.836 46.4152C441.466 48.4363 440.194 50.5229 438.971 52.631C438.568 53.3252 438.157 54.0146 437.742 54.7019C437.273 55.4802 436.811 56.2632 436.337 57.0391C435.876 57.7949 435.412 58.5486 434.934 59.2944C434.549 59.895 434.145 60.4814 433.728 61.0612C432.814 62.3299 431.557 63.1941 429.926 63.1941C427.293 63.1941 425.552 61.7657 424.786 59.3528C424.655 58.9414 424.532 58.529 424.411 58.1153C424.305 57.7547 424.228 57.3908 424.166 57.0212C424.1 56.6284 424.059 56.2316 424.044 55.8338C424.027 55.3358 424.031 54.8337 424.031 54.3353C424.031 53.3844 424.052 52.4311 424.127 51.4825C424.193 50.6281 424.281 49.7755 424.38 48.9241C424.488 47.9964 424.636 47.0723 424.779 46.1489C424.952 45.0323 425.095 43.91 425.232 42.7883C425.369 41.6597 425.47 40.5255 425.567 39.3929C425.669 38.2115 425.761 37.0291 425.855 35.847C425.939 34.7765 426.037 33.7074 426.131 32.6375C426.203 31.8124 426.31 30.9318 426.531 30.1293C426.655 29.595 426.939 29.0993 427.254 28.6504C427.593 28.1673 427.977 27.716 428.406 27.3059C428.833 26.8969 429.289 26.5207 429.797 26.2092C430.34 25.8546 430.951 25.5996 431.615 25.5996C432.374 25.5996 433.097 25.7693 433.743 26.2122C434.261 26.5808 434.665 27.0556 434.972 27.6011C435.29 28.1653 435.472 28.7911 435.58 29.4233C435.686 30.0436 435.743 30.6689 435.743 31.2981C435.743 32.093 435.647 32.9107 435.55 33.6997C435.427 34.6898 435.276 35.6774 435.109 36.6615C434.924 37.7569 434.712 38.8484 434.502 39.9398C434.294 41.0159 434.091 42.0927 433.87 43.1662C433.678 44.0975 433.488 45.0296 433.311 45.9636C433.184 46.632 433.052 47.3154 432.971 47.9904C432.971 48.014 432.964 48.0339 432.961 48.0575C432.933 48.2222 432.904 48.3875 432.876 48.5532C433.531 47.6305 434.154 46.6838 434.77 45.7371C435.461 44.6769 436.14 43.6088 436.817 42.5403C437.363 41.6783 437.897 40.8083 438.433 39.9404C439.051 38.9409 439.691 37.9548 440.341 36.9746C440.976 36.016 441.634 35.0717 442.316 34.144C442.898 33.3527 443.508 32.5671 444.168 31.8359C445.23 30.6605 446.459 29.5857 447.871 28.824C449.19 28.1121 450.624 27.7273 452.133 27.7273C453.786 27.7273 455.195 28.3811 456.33 29.5413C457.496 30.7326 458.163 32.2381 458.499 33.8348C458.676 34.6795 458.807 35.5306 458.887 36.3892C458.977 37.3492 459.068 38.3088 459.138 39.2703C459.21 40.2668 459.283 41.2636 459.348 42.2607C459.41 43.1981 459.472 44.136 459.555 45.0724C459.613 45.7192 459.691 46.4059 459.849 47.0378C459.892 47.2081 459.938 47.3821 459.989 47.5551C460.389 46.9853 460.799 46.3003 460.966 46.0171C461.619 44.9087 462.263 43.7961 462.918 42.6894C463.714 41.345 464.502 39.9965 465.305 38.6564C466.19 37.1808 467.151 35.749 468.182 34.3665C469.128 33.0958 470.124 31.8486 471.209 30.6858C472.087 29.7438 473.053 28.8058 474.107 28.0497C474.955 27.4424 475.981 26.8736 477.064 26.8736C477.552 26.8736 478.036 26.9221 478.473 27.0051C478.985 27.0855 479.49 27.2276 479.969 27.4205C480.418 27.6011 480.849 27.8226 481.248 28.0925C481.267 28.1058 481.284 28.1178 481.303 28.1321C481.696 28.4279 482.04 28.7759 482.3 29.19C482.774 29.9433 483.101 30.7645 483.294 31.6265C483.501 32.5469 483.621 33.4888 483.689 34.4279C483.77 35.5309 483.84 36.635 483.9 37.7393C483.972 39.0555 484.075 40.3691 484.221 41.6796C484.447 43.7007 484.843 46.3687 485.757 48.2165C486.178 49.0666 486.744 49.7582 487.775 49.7582C488.219 49.7582 488.865 49.5108 489.242 49.3537C490.085 48.9832 490.901 48.5549 491.683 48.0757C492.613 47.5076 493.51 46.8887 494.379 46.2373C495.259 45.5775 496.123 44.8957 496.96 44.1855C497.745 43.5191 498.514 42.8345 499.275 42.108C500.042 41.4004 500.795 40.6792 501.549 39.9583C501.837 39.6831 502.123 39.4068 502.409 39.1296C502.792 37.4537 503.316 35.7597 503.82 34.1231C504.169 32.9908 504.534 31.8615 504.93 30.7435C505.215 29.9374 505.533 29.1073 505.928 28.3456C506.666 26.9238 507.869 25.8954 509.304 25.159C510.787 24.3979 512.394 24.0221 514.061 24.3196C515.895 24.6466 516.103 26.4267 515.823 27.9142C515.632 28.9259 515.338 29.9287 514.991 30.8996C514.628 31.915 514.271 32.9324 513.897 33.9441C513.292 35.5824 512.714 37.2403 512.227 38.9158C511.863 40.1719 511.515 41.4545 511.273 42.7385C510.818 45.1554 510.732 47.6282 510.936 50.0746C511.043 51.3563 511.361 53.1273 512.91 53.4036C514.911 53.7603 517.193 53.2615 519.086 52.631C520.447 52.1774 521.778 51.6442 523.089 51.0678C524.494 50.4498 525.858 49.7409 527.192 48.9918C528.595 48.2049 529.992 47.407 531.359 46.5613C532.691 45.7361 534.005 44.8812 535.295 43.9933C536.339 43.2751 537.371 42.5416 538.391 41.7912C538.391 41.7812 538.397 41.7713 538.397 41.7613C538.756 39.8584 539.221 37.9731 539.747 36.1077C540.297 34.1569 540.904 32.2222 541.553 30.3003C542.199 28.3917 542.866 26.4898 543.579 24.6045C544.263 22.7965 544.957 20.9916 545.67 19.2251C546.043 18.2412 546.431 17.2634 546.829 16.2889C547.111 15.5975 547.395 14.9066 547.67 14.2123C547.915 13.5937 548.148 12.9707 548.365 12.3123C548.652 11.5005 548.937 10.6883 549.214 9.90407C549.413 9.29309 549.633 8.69116 549.846 8.11839C549.992 7.69171 550.151 7.26965 550.309 6.81773C550.556 6.15995 550.876 5.53175 551.284 4.92315C551.695 4.33541 552.176 3.80418 552.716 3.38978C553.286 2.92195 553.936 2.57826 554.623 2.37673C555.379 2.1373 556.164 2.10047 556.946 2.24023C558.698 2.5527 559.866 3.64875 560.374 5.29732C560.466 5.59483 560.454 5.87744 560.337 6.16661C560.046 6.88384 559.748 7.59874 559.431 8.30563C559.128 8.98132 558.861 9.67361 558.609 10.3686C558.602 10.3839 558.598 10.3968 558.592 10.4121C557.62 12.8244 556.632 15.2306 555.632 17.6326C555.09 18.9355 554.561 20.2505 554.016 21.5032C553.384 23.109 552.741 24.7107 552.111 26.3175C551.429 28.057 550.776 29.8069 550.159 31.5693C549.543 33.3292 548.965 35.1016 548.447 36.8913C547.98 38.5037 547.562 40.1376 547.251 41.7859C546.977 43.2432 546.812 44.7361 546.83 46.2189C546.843 47.3303 546.987 48.4997 547.398 49.543C547.733 50.392 548.248 51.1113 548.961 51.6976C549.731 52.3315 550.72 52.6745 551.701 52.8495C553.063 53.0922 554.419 53.0161 555.76 52.6854C557.28 52.3102 558.745 51.7507 560.14 51.0571C561.633 50.3153 563.067 49.4703 564.432 48.5223C565.766 47.595 567.076 46.6344 568.338 45.6641C569.193 44.9738 570.055 44.2901 570.909 43.6396C571.517 43.1578 572.129 42.6811 572.734 42.1959C572.749 42.184 572.763 42.1724 572.779 42.1604C573.552 38.5203 574.854 35.0398 576.684 31.7709C578.814 27.967 581.793 24.7402 585.241 22.0229C585.253 22.0135 585.263 22.0059 585.275 21.9969C586.021 21.4468 586.814 20.961 587.637 20.528C588.492 20.0778 589.388 19.7019 590.309 19.3997C591.227 19.0983 592.179 18.8811 593.142 18.7712C594.105 18.6616 595.077 18.65 596.039 18.7762C596.062 18.7794 596.081 18.7825 596.103 18.7863C596.428 18.844 596.754 18.94 597.069 19.0312C597.088 19.0369 597.103 19.0412 597.121 19.0472C597.565 19.1936 597.993 19.3832 598.406 19.597C598.843 19.8228 599.26 20.0812 599.652 20.3744C600.134 20.7124 600.53 21.1291 600.798 21.6029C601.378 22.5545 601.859 23.5782 602.16 24.647C602.473 25.7614 602.531 26.9132 602.372 28.0568C602.194 29.3358 601.804 30.5554 601.22 31.7139C600.594 32.956 599.746 34.0826 598.781 35.0957C597.652 36.2817 596.337 37.3307 594.989 38.2723C593.32 39.4381 591.551 40.4933 589.764 41.4801C588.38 42.2448 586.991 43.0026 585.602 43.7603C584.042 44.6117 582.408 45.3584 580.76 46.0431C580.598 47.4808 580.801 48.9099 581.771 50.0843C582.975 51.5426 584.831 52.2183 586.669 52.5464C588.025 52.7878 589.4 52.8426 590.773 52.7503C592.242 52.652 593.697 52.4252 595.129 52.0961C596.591 51.7604 598.028 51.3314 599.433 50.8181C600.806 50.3168 602.168 49.7762 603.491 49.1589C605.727 48.116 607.917 46.9771 610.034 45.7213C612.071 44.5127 614.077 43.2549 616.041 41.9357L618.449 40.3183C618.473 40.3021 618.494 40.2888 618.519 40.2738C619.56 39.6632 621.187 38.7793 622.446 39.0034C623.618 39.2123 624.064 40.2599 623.864 41.3195C623.703 42.1701 622.919 43.1051 622.353 43.749C622.329 43.7769 622.307 43.7998 622.28 43.8257C620.529 45.5264 618.67 47.1255 616.745 48.6376C614.738 50.2148 612.645 51.6871 610.473 53.0408C608.308 54.3889 606.068 55.6165 603.763 56.7208C601.546 57.7827 599.255 58.7104 596.898 59.4389C594.706 60.1173 592.446 60.6017 590.156 60.8281C588.042 61.0373 585.908 60.9626 583.819 60.5808C579.933 59.8705 576.411 58.2107 574.195 54.9228C573.354 53.674 572.813 52.3053 572.502 50.8779C571.95 51.371 571.385 51.8505 570.805 52.313C570.039 52.9246 569.267 53.5302 568.486 54.1246C567.716 54.7113 566.932 55.2817 566.126 55.8226C564.906 56.6424 563.631 57.3882 562.32 58.0609C560.948 58.7645 559.531 59.3758 558.068 59.8752C556.598 60.3769 555.09 60.7537 553.545 60.9553C552.04 61.1515 550.513 61.1413 549.018 60.8743C547.161 60.5432 545.405 59.9021 543.822 58.897C542.216 57.8779 540.945 56.5292 539.98 54.9178C539.09 53.4286 538.536 51.7774 538.219 50.0876L538.221 50.0877ZM379.711 29.32C379.673 30.0544 380 30.8795 380.332 31.5191C380.885 32.5826 381.594 33.5635 382.414 34.448C383.345 35.4524 384.391 36.3337 385.532 37.105C386.629 37.8465 387.829 38.4269 389.105 38.8107C389.141 38.8217 389.172 38.8323 389.207 38.8459C389.742 39.0531 390.301 39.2357 390.841 39.4326C391.755 39.7656 392.682 40.0668 393.603 40.3806C394.53 40.6963 395.454 41.0214 396.381 41.3395C396.881 41.5115 397.405 41.6931 397.917 41.8289C403.031 43.189 409.11 45.2091 413.356 48.3847C416.726 50.9049 418.782 54.2007 418.782 58.3878C418.782 59.7345 418.481 61.0431 417.943 62.2813C417.41 63.5075 416.73 64.6627 415.941 65.7495C415.171 66.81 414.328 67.8181 413.389 68.7425C412.587 69.5324 411.755 70.319 410.885 70.9953C409.909 71.7889 408.893 72.536 407.851 73.2462C406.672 74.0505 405.461 74.8095 404.212 75.5081C402.915 76.2333 401.582 76.8947 400.231 77.5189C398.866 78.1501 397.466 78.7092 396.038 79.1914C394.615 79.6719 393.177 80.1111 391.723 80.4913C390.247 80.8772 388.757 81.2152 387.257 81.5011C385.85 81.7694 384.435 81.9885 383.014 82.1738C381.779 82.3348 380.529 82.4364 379.282 82.4364C378.209 82.4364 377.079 82.2608 376.027 82.0679C374.716 81.8278 373.429 81.4941 372.174 81.0548C370.995 80.642 369.843 80.1148 368.805 79.4272C367.775 78.7448 366.943 77.7792 366.943 76.5082C366.943 75.9387 367.014 75.3617 367.115 74.8015C367.232 74.1547 367.39 73.5162 367.614 72.8963C367.826 72.3085 368.082 71.7179 368.424 71.2221C368.882 70.5262 369.565 70.0294 370.441 70.0294C371.219 70.0294 371.989 70.1586 372.727 70.394C373.466 70.6301 374.215 70.8422 374.933 71.0501C375.917 71.3127 376.926 71.512 377.93 71.6823C379.284 71.9117 380.73 71.9612 382.102 71.9612C383.877 71.9612 385.652 71.755 387.39 71.4071C389.242 71.0362 391.063 70.5404 392.843 69.9189C394.596 69.3069 396.316 68.5993 397.98 67.7852C399.495 67.0434 400.966 66.2163 402.336 65.3198C403.023 64.836 403.703 64.3423 404.374 63.8375C405.071 63.3132 405.73 62.7474 406.335 62.1238C406.897 61.5444 407.383 60.905 407.787 60.2124C408.101 59.6751 408.279 59.102 408.279 58.4827C408.279 57.558 407.092 56.6794 406.393 56.2315C404.92 55.2872 403.345 54.5092 401.679 53.9421C400.207 53.441 398.714 52.9801 397.206 52.5897C395.308 52.0983 393.431 51.4883 391.581 50.8458C389.3 50.0542 387.045 49.186 384.802 48.2967C380.643 46.6468 377.015 44.2263 374.026 40.9636C370.923 37.5765 369.488 33.5193 369.488 29.0335C369.417 26.646 370.165 24.4104 371.512 22.4222C372.961 20.2805 374.856 18.454 376.944 16.9007C379.292 15.1531 381.866 13.7038 384.545 12.4958C387.359 11.2271 390.286 10.218 393.296 9.49116C393.31 9.48803 393.322 9.48491 393.335 9.48222C394.07 9.32717 394.805 9.17977 395.545 9.04927C396.449 8.88991 397.356 8.74706 398.269 8.64451C399.151 8.54553 400.034 8.4566 400.917 8.37453C401.682 8.30349 402.459 8.24273 403.227 8.24273C404.167 8.24273 405.132 8.32805 406.067 8.4234C407.214 8.53992 408.357 8.69366 409.495 8.87232C410.642 9.05224 411.781 9.28764 412.873 9.59046C413.847 9.84117 414.837 10.1882 415.677 10.6739C417.237 11.5253 418.638 12.6204 419.685 14.0422C420.594 15.2767 421.236 16.6819 421.236 18.2232C421.236 18.7697 421.174 19.3259 421.098 19.9C420.998 20.5369 420.853 21.1674 420.685 21.8229C420.511 22.4428 420.3 23.0521 420.049 23.6803C419.803 24.254 419.497 24.8258 419.112 25.2658C417.935 26.7101 416.001 27.1033 414.201 27.1033C413.449 27.1033 412.836 26.5066 412.836 25.7752C412.836 24.2408 412.692 22.5108 412.097 21.0747C411.916 20.6385 411.548 20.3091 411.151 20.0561C410.51 19.6463 409.82 19.3183 409.1 19.0622C408.331 18.7893 407.544 18.5748 406.735 18.452C406.07 18.3507 405.364 18.2634 404.69 18.2634C403.335 18.2634 401.979 18.2916 400.626 18.3557C399.377 18.4148 398.13 18.5334 396.897 18.7326C395.65 18.9338 394.416 19.2011 393.2 19.5331C391.881 19.8927 390.591 20.3436 389.333 20.8712C388.233 21.3331 387.163 21.8823 386.116 22.4468C385.052 23.0195 384.046 23.6875 383.11 24.4426C382.239 25.1446 381.462 25.9405 380.793 26.828C380.227 27.5791 379.854 28.3985 379.71 29.32H379.711ZM593.62 27.0053C593.566 26.8855 593.506 26.7755 593.437 26.6986C592.238 26.5787 590.952 27.3842 590.068 28.0768C588.29 29.4694 586.745 31.3019 585.427 33.1049C585.417 33.1189 585.408 33.1305 585.398 33.1438C585.033 33.606 584.725 34.1156 584.45 34.6323C584.117 35.2595 583.79 35.8907 583.483 36.5309C583.412 36.678 583.342 36.8257 583.273 36.9742C583.571 36.8294 583.869 36.6847 584.167 36.5399C585.345 35.9684 586.497 35.3428 587.611 34.6615C588.33 34.2216 589.039 33.7657 589.733 33.2892C590.414 32.822 591.059 32.3097 591.663 31.7505C592.195 31.2568 592.679 30.7136 593.082 30.0787C593.412 29.5823 593.634 29.0348 593.718 28.4925C593.752 28.1983 593.756 27.9018 593.737 27.6063C593.737 27.5914 593.737 27.5785 593.737 27.5635C593.73 27.3722 593.687 27.1853 593.622 27.0053H593.62ZM327.693 31.7505C327.315 31.7622 326.936 31.7724 326.557 31.7724C325.816 31.7724 325.105 31.8784 324.403 32.1101C323.647 32.3592 322.928 32.7028 322.251 33.1132C321.508 33.5635 320.815 34.0854 320.165 34.6549C319.454 35.2774 318.763 35.9202 318.082 36.6079C317.453 37.2192 316.882 37.9039 316.348 38.5945C315.689 39.4486 315.081 40.3431 314.515 41.2585C313.888 42.2742 313.285 43.3039 312.725 44.3568C312.179 45.3841 311.683 46.437 311.253 47.5151C310.865 48.488 310.532 49.4825 310.269 50.4949C310.065 51.2784 309.931 52.0986 309.931 52.9085C309.931 53.1681 309.965 53.441 310.007 53.697C310.059 54.0247 310.145 54.3435 310.267 54.6795C310.326 54.8525 310.413 55.0212 310.535 55.1723C311.77 55.1477 313.206 54.6537 314.32 54.1951C316.6 53.2561 318.648 51.9674 320.48 50.3458C322.35 48.6902 323.937 46.777 325.205 44.6987C327.073 41.3989 328.034 37.8693 328.034 34.101C328.034 33.6163 328.001 33.1248 327.96 32.6417C327.935 32.3509 327.868 31.9999 327.695 31.7535C327.695 31.7523 327.695 31.7516 327.695 31.7504L327.693 31.7505ZM116.293 31.7505C115.914 31.7622 115.535 31.7724 115.157 31.7724C114.415 31.7724 113.704 31.8784 113.002 32.1101C112.246 32.3592 111.527 32.7028 110.85 33.1132C110.107 33.5635 109.414 34.0854 108.764 34.6549C108.053 35.2774 107.362 35.9202 106.681 36.6079C106.052 37.2192 105.481 37.9039 104.948 38.5945C104.288 39.4486 103.68 40.3431 103.115 41.2585C102.487 42.2742 101.884 43.3039 101.324 44.3568C100.778 45.3841 100.282 46.437 99.8523 47.5151C99.464 48.488 99.1316 49.4825 98.8686 50.4949C98.6645 51.2784 98.5304 52.0986 98.5304 52.9085C98.5304 53.1681 98.5644 53.441 98.6058 53.697C98.6581 54.0247 98.744 54.3435 98.8662 54.6795C98.9253 54.8525 99.0122 55.0212 99.134 55.1723C100.369 55.1477 101.805 54.6537 102.919 54.1951C105.199 53.2561 107.247 51.9674 109.079 50.3458C110.949 48.6902 112.536 46.777 113.804 44.6987C115.672 41.3989 116.633 37.8693 116.633 34.101C116.633 33.6163 116.6 33.1248 116.559 32.6417C116.535 32.3509 116.467 31.9999 116.295 31.7535C116.295 31.7523 116.295 31.7516 116.295 31.7504L116.293 31.7505ZM301.541 52.1119C300.736 52.7607 299.907 53.3853 299.077 54.0022C298.054 54.7622 296.987 55.4655 295.879 56.103C294.756 56.7491 293.584 57.3163 292.361 57.7592C291.19 58.1829 289.956 58.4542 288.703 58.4542C287.719 58.4542 286.734 58.3317 285.805 58.0059C284.78 57.6467 283.928 57.0184 283.225 56.2156C282.411 55.2859 281.837 54.1407 281.401 53.0024C280.807 51.4505 280.426 49.7647 280.148 48.1623C279.976 47.2867 279.843 46.4034 279.728 45.5192C279.611 44.6197 279.506 43.7189 279.388 42.8194C279.274 41.9514 279.17 41.0821 279.06 40.2139C278.972 39.5196 278.87 38.8163 278.715 38.133C278.674 37.9494 278.628 37.7508 278.575 37.5529C278.569 37.5567 278.567 37.5605 278.563 37.5642C277.852 38.2173 277.195 39.0156 276.605 39.7719C275.691 40.9437 274.839 42.1706 274.021 43.4078C272.986 44.9737 271.99 46.5618 271.05 48.1835C269.432 50.976 267.68 53.942 265.703 56.5084C264.536 58.0218 262.803 59.8427 260.696 59.8427C258.352 59.8427 256.649 58.6773 255.851 56.5333C255.844 56.522 255.843 56.5124 255.839 56.5011C254.975 53.9776 254.791 50.5144 254.722 47.8701C254.653 45.1985 254.545 42.0653 253.931 39.4558C253.849 39.1078 253.573 38.0477 253.289 37.5552C252.964 37.7565 252.532 38.1353 252.36 38.2924C251.328 39.2377 250.384 40.373 249.525 41.4683C248.271 43.0698 247.091 44.7349 245.952 46.4151C244.581 48.4362 243.309 50.5228 242.086 52.6308C241.684 53.3251 241.272 54.0145 240.857 54.7018C240.388 55.4801 239.926 56.2631 239.453 57.039C238.992 57.7947 238.527 58.5485 238.049 59.2942C237.664 59.8948 237.261 60.4813 236.843 61.061C235.929 62.3298 234.673 63.194 233.042 63.194C230.409 63.194 228.667 61.7656 227.901 59.3527C227.771 58.9413 227.647 58.5289 227.526 58.1152C227.42 57.7546 227.344 57.3906 227.282 57.0211C227.216 56.6283 227.174 56.2315 227.16 55.8337C227.142 55.3357 227.146 54.8336 227.146 54.3352C227.146 53.3843 227.167 52.431 227.242 51.4823C227.309 50.628 227.396 49.7753 227.495 48.924C227.603 47.9962 227.752 47.0722 227.894 46.1488C227.894 46.1418 227.894 46.1348 227.901 46.1279C227.741 46.3021 227.58 46.4762 227.419 46.6495C226.531 47.6081 225.611 48.5388 224.66 49.439C223.725 50.3242 222.757 51.1775 221.755 51.9913C220.903 52.6833 220.024 53.347 219.142 54.0022C218.119 54.7622 217.052 55.4655 215.945 56.103C214.822 56.7491 213.649 57.3163 212.426 57.7592C211.256 58.1829 210.021 58.4542 208.768 58.4542C207.784 58.4542 206.799 58.3317 205.87 58.0059C204.846 57.6467 203.993 57.0184 203.29 56.2156C202.477 55.2859 201.902 54.1407 201.466 53.0024C200.873 51.4505 200.491 49.7647 200.213 48.1623C200.041 47.2867 199.909 46.4034 199.794 45.5192C199.676 44.6197 199.571 43.7189 199.453 42.8194C199.339 41.9514 199.235 41.0821 199.125 40.2139C199.037 39.5196 198.935 38.8163 198.78 38.133C198.739 37.9494 198.693 37.7508 198.64 37.5529C198.634 37.5567 198.632 37.5605 198.628 37.5642C197.918 38.2173 197.26 39.0156 196.67 39.7719C195.756 40.9437 194.904 42.1706 194.086 43.4078C193.051 44.9737 192.055 46.5618 191.115 48.1835C189.497 50.976 187.745 53.942 185.768 56.5084C184.601 58.0218 182.868 59.8427 180.761 59.8427C178.417 59.8427 176.714 58.6773 175.916 56.5333C175.91 56.522 175.908 56.5124 175.905 56.5011C175.04 53.9776 174.856 50.5144 174.787 47.8701C174.718 45.1985 174.61 42.0653 173.996 39.4558C173.915 39.1078 173.638 38.0477 173.354 37.5552C173.029 37.7565 172.597 38.1353 172.426 38.2924C171.393 39.2377 170.449 40.373 169.59 41.4683C168.336 43.0698 167.156 44.7349 166.017 46.4151C164.646 48.4362 163.374 50.5228 162.151 52.6308C161.749 53.3251 161.337 54.0145 160.923 54.7018C160.453 55.4801 159.991 56.2631 159.518 57.039C159.057 57.7947 158.592 58.5485 158.114 59.2942C157.729 59.8948 157.326 60.4813 156.909 61.061C155.994 62.3298 154.738 63.194 153.107 63.194C150.474 63.194 148.732 61.7656 147.966 59.3527C147.836 58.9413 147.712 58.5289 147.591 58.1152C147.485 57.7546 147.409 57.3906 147.347 57.0211C147.281 56.6283 147.239 56.2315 147.225 55.8337C147.207 55.3357 147.211 54.8336 147.211 54.3352C147.211 53.3843 147.233 52.431 147.307 51.4823C147.374 50.628 147.461 49.7753 147.56 48.924C147.647 48.1749 147.761 47.4281 147.877 46.682C147.751 46.7959 147.625 46.9072 147.5 47.015C145.953 48.4083 144.391 49.7833 142.825 51.1556C141.301 52.4917 139.675 53.7229 137.955 54.8117C136.284 55.8689 134.506 56.7412 132.63 57.3953C130.649 58.0856 128.56 58.3572 126.462 58.3393C125.333 58.3297 124.224 58.1341 123.161 57.7655C122.051 57.381 121.021 56.8252 120.083 56.1319C119.115 55.416 118.285 54.5594 117.597 53.5832C117.329 53.2043 117.092 52.8112 116.884 52.4047C116.608 52.68 116.332 52.9546 116.055 53.2285C115.208 54.0653 114.344 54.8858 113.475 55.6999C112.57 56.5476 111.631 57.3624 110.666 58.1457C109.692 58.9366 108.681 59.6874 107.62 60.3644C106.937 60.8003 106.211 61.1856 105.486 61.5528C104.653 61.9755 103.798 62.3596 102.907 62.7195C102.007 63.0645 101.09 63.368 100.173 63.5842C99.3059 63.8047 98.4068 63.9458 97.5098 63.9458C96.162 63.9458 94.935 63.5257 93.9168 62.6641C93.0112 61.8978 92.2796 60.9823 91.7197 59.95C91.1591 58.916 90.7469 57.8193 90.4825 56.6791C90.2491 55.6727 90.0826 54.6174 90.0826 53.5835C90.0826 51.7559 90.3671 49.9457 90.8647 48.1855C91.372 46.3905 92.0295 44.6363 92.8443 42.9519C93.6397 41.3073 94.533 39.7062 95.5311 38.1698C96.4332 36.7809 97.3957 35.4238 98.4409 34.1329C99.5259 32.7934 100.743 31.5539 102.038 30.4058C103.39 29.2061 104.828 28.104 106.347 27.1115C107.751 26.1945 109.232 25.3833 110.788 24.7375C112.106 24.1903 113.56 23.7773 115.003 23.7773C115.571 23.7773 116.138 23.7773 116.705 23.7773C117.354 23.7773 118.005 23.8051 118.65 23.8745C119.286 23.9433 119.92 24.0488 120.542 24.1982C121.229 24.3633 121.893 24.6213 122.491 24.9908C122.963 25.2827 123.361 25.7635 123.662 26.1845C124.041 26.6912 124.367 27.2348 124.637 27.7747C124.937 28.3441 125.193 28.9355 125.382 29.5182C125.564 30.0368 125.73 30.6325 125.73 31.1834C125.73 32.3628 125.429 33.6564 125.113 34.793C124.745 36.3529 124.374 37.9129 123.991 39.4695C123.664 40.792 123.504 42.145 123.504 43.5047C123.504 44.2548 123.635 44.9959 123.862 45.7115C124.094 46.44 124.429 47.1187 124.886 47.7382C125.302 48.3034 125.799 48.7875 126.408 49.1551C126.97 49.4947 127.579 49.6435 128.241 49.6435C129.719 49.6435 131.159 49.3148 132.527 48.7825C134.185 48.137 135.753 47.2814 137.229 46.3055C138.939 45.1739 140.561 43.9168 142.097 42.569C143.748 41.1207 145.347 39.6169 146.883 38.0526C147.091 37.7924 147.332 37.5396 147.538 37.3065C147.872 36.9134 148.228 36.5392 148.585 36.1656C148.736 36.007 148.89 35.8502 149.047 35.6968C149.129 34.6764 149.221 33.657 149.311 32.6374C149.384 31.8123 149.49 30.9317 149.711 30.1292C149.835 29.5949 150.119 29.0992 150.434 28.6503C150.773 28.1671 151.158 27.7159 151.586 27.3058C152.014 26.8967 152.47 26.5206 152.977 26.2091C153.52 25.8545 154.131 25.5995 154.796 25.5995C155.554 25.5995 156.277 25.7691 156.924 26.2121C157.442 26.5806 157.845 27.0555 158.153 27.601C158.471 28.1651 158.652 28.791 158.761 29.4232C158.867 30.0435 158.923 30.6688 158.923 31.298C158.923 32.0929 158.828 32.9106 158.73 33.6996C158.608 34.6897 158.456 35.6772 158.29 36.6614C158.104 37.7568 157.892 38.8482 157.682 39.9396C157.475 41.0158 157.271 42.0926 157.05 43.166C156.859 44.0974 156.669 45.0294 156.491 45.9635C156.364 46.6319 156.232 47.3152 156.151 47.9902C156.151 48.0139 156.145 48.0338 156.142 48.0574C156.113 48.222 156.084 48.3873 156.057 48.553C156.712 47.6303 157.334 46.6837 157.951 45.737C158.642 44.6768 159.321 43.6087 159.997 42.5402C160.544 41.6782 161.077 40.8082 161.613 39.9403C162.231 38.9408 162.871 37.9547 163.521 36.9745C164.157 36.0159 164.814 35.0716 165.496 34.1439C166.078 33.3526 166.688 32.567 167.348 31.8358C168.41 30.6604 169.639 29.5856 171.051 28.8239C172.37 28.112 173.805 27.7272 175.314 27.7272C176.967 27.7272 178.375 28.381 179.51 29.5412C180.676 30.7325 181.343 32.2379 181.679 33.8347C181.857 34.6794 181.987 35.5305 182.068 36.3891C182.157 37.3491 182.249 38.3087 182.319 39.2702C182.391 40.2667 182.463 41.2635 182.529 42.2606C182.59 43.198 182.653 44.1359 182.736 45.0723C182.794 45.7191 182.871 46.4057 183.03 47.0376C183.072 47.208 183.118 47.3819 183.169 47.555C183.569 46.9851 183.98 46.3002 184.147 46.0169C184.799 44.9086 185.444 43.7959 186.099 42.6893C186.895 41.3448 187.683 39.9964 188.486 38.6563C189.37 37.1807 190.332 35.7489 191.362 34.3663C192.309 33.0956 193.305 31.8485 194.389 30.6857C195.268 29.7437 196.233 28.8057 197.288 28.0496C198.135 27.4423 199.161 26.8735 200.244 26.8735C200.732 26.8735 201.216 26.922 201.653 27.005C202.165 27.0854 202.671 27.2275 203.15 27.4204C203.598 27.601 204.029 27.8225 204.428 28.0924C204.448 28.1057 204.465 28.1177 204.483 28.1319C204.877 28.4278 205.22 28.7758 205.481 29.1898C205.955 29.9432 206.281 30.7643 206.475 31.6263C206.681 32.5467 206.801 33.4887 206.87 34.4278C206.95 35.5308 207.02 36.6348 207.08 37.7392C207.152 39.0554 207.256 40.3689 207.402 41.6795C207.627 43.7006 208.024 46.3686 208.938 48.2164C209.358 49.0664 209.924 49.758 210.955 49.758C211.4 49.758 212.046 49.5106 212.423 49.3536C213.266 48.983 214.081 48.5547 214.864 48.0756C215.793 47.5075 216.691 46.8886 217.559 46.2371C218.439 45.5773 219.303 44.8956 220.14 44.1854C220.925 43.519 221.695 42.8343 222.456 42.1078C223.222 41.4003 223.976 40.6791 224.729 39.9582C225.516 39.2055 226.296 38.4458 227.07 37.6801C227.703 37.0539 228.337 36.4283 228.976 35.8071C229.061 34.7499 229.156 33.6939 229.249 32.6374C229.322 31.8123 229.428 30.9317 229.649 30.1292C229.773 29.5949 230.057 29.0992 230.372 28.6503C230.711 28.1671 231.096 27.7159 231.525 27.3058C231.952 26.8967 232.408 26.5206 232.915 26.2091C233.459 25.8545 234.069 25.5995 234.734 25.5995C235.493 25.5995 236.215 25.7691 236.862 26.2121C237.38 26.5806 237.783 27.0555 238.091 27.601C238.409 28.1651 238.59 28.791 238.699 29.4232C238.805 30.0435 238.861 30.6688 238.861 31.298C238.861 32.0929 238.766 32.9106 238.668 33.6996C238.546 34.6897 238.394 35.6772 238.228 36.6614C238.042 37.7568 237.831 38.8482 237.62 39.9396C237.413 41.0158 237.209 42.0926 236.988 43.166C236.797 44.0974 236.607 45.0294 236.429 45.9635C236.302 46.6319 236.17 47.3152 236.089 47.9902C236.089 48.0139 236.083 48.0338 236.08 48.0574C236.051 48.222 236.023 48.3873 235.995 48.553C236.65 47.6303 237.272 46.6837 237.889 45.737C238.58 44.6768 239.259 43.6087 239.936 42.5402C240.482 41.6782 241.015 40.8082 241.551 39.9403C242.169 38.9408 242.81 37.9547 243.46 36.9745C244.095 36.0159 244.752 35.0716 245.435 34.1439C246.016 33.3526 246.626 32.567 247.287 31.8358C248.348 30.6604 249.578 29.5856 250.989 28.8239C252.309 28.112 253.743 27.7272 255.252 27.7272C256.905 27.7272 258.314 28.381 259.449 29.5412C260.614 30.7325 261.282 32.2379 261.617 33.8347C261.795 34.6794 261.925 35.5305 262.006 36.3891C262.095 37.3491 262.187 38.3087 262.257 39.2702C262.329 40.2667 262.401 41.2635 262.467 42.2606C262.529 43.198 262.591 44.1359 262.674 45.0723C262.732 45.7191 262.809 46.4057 262.968 47.0376C263.011 47.208 263.057 47.3819 263.107 47.555C263.508 46.9851 263.918 46.3002 264.085 46.0169C264.738 44.9086 265.382 43.7959 266.037 42.6893C266.833 41.3448 267.621 39.9964 268.424 38.6563C269.308 37.1807 270.27 35.7489 271.3 34.3663C272.247 33.0956 273.243 31.8485 274.327 30.6857C275.206 29.7437 276.171 28.8057 277.226 28.0496C278.074 27.4423 279.1 26.8735 280.183 26.8735C280.671 26.8735 281.154 26.922 281.591 27.005C282.104 27.0854 282.609 27.2275 283.088 27.4204C283.536 27.601 283.968 27.8225 284.367 28.0924C284.386 28.1057 284.402 28.1177 284.421 28.1319C284.815 28.4278 285.158 28.7758 285.419 29.1898C285.893 29.9432 286.219 30.7643 286.413 31.6263C286.619 32.5467 286.739 33.4887 286.808 34.4278C286.888 35.5308 286.959 36.6348 287.019 37.7392C287.09 39.0554 287.194 40.3689 287.34 41.6795C287.566 43.7006 287.962 46.3686 288.876 48.2164C289.296 49.0664 289.862 49.758 290.893 49.758C291.338 49.758 291.984 49.5106 292.361 49.3536C293.204 48.983 294.019 48.5547 294.802 48.0756C295.731 47.5075 296.629 46.8886 297.498 46.2371C298.377 45.5773 299.242 44.8956 300.079 44.1854C300.864 43.519 301.633 42.8343 302.394 42.1078C303.16 41.4003 303.914 40.6791 304.667 39.9582C305.455 39.2051 306.234 38.4444 307.009 37.6795L307.738 36.9595C308.402 35.9923 309.102 35.047 309.842 34.1332C310.926 32.7934 312.143 31.5539 313.438 30.4058C314.791 29.2061 316.228 28.104 317.748 27.1115C319.152 26.1945 320.632 25.3833 322.189 24.7375C323.507 24.1903 324.961 23.7773 326.404 23.7773C326.972 23.7773 327.539 23.7773 328.106 23.7773C328.755 23.7773 329.405 23.8051 330.051 23.8745C330.687 23.9433 331.321 24.0488 331.943 24.1982C332.629 24.3633 333.294 24.6213 333.892 24.9908C334.364 25.2827 334.762 25.7635 335.063 26.1845C335.442 26.6912 335.768 27.2348 336.038 27.7747C336.338 28.3441 336.593 28.9355 336.783 29.5182C336.965 30.0368 337.131 30.6325 337.131 31.1834C337.131 32.3628 336.83 33.6564 336.514 34.793C336.146 36.3529 335.775 37.9129 335.391 39.4695C335.065 40.792 334.905 42.145 334.905 43.5047C334.905 44.2548 335.036 44.9959 335.263 45.7115C335.495 46.44 335.83 47.1187 336.286 47.7382C336.703 48.3034 337.2 48.7875 337.808 49.1551C338.371 49.4947 338.98 49.6435 339.642 49.6435C341.12 49.6435 342.56 49.3148 343.928 48.7825C345.586 48.137 347.154 47.2814 348.629 46.3055C350.34 45.1739 351.962 43.9168 353.498 42.569C355.149 41.1207 356.748 39.6169 358.284 38.0526C358.492 37.7924 358.733 37.5396 358.938 37.3065C359.273 36.9134 359.629 36.5392 359.986 36.1656C360.342 35.7925 360.71 35.4305 361.103 35.0931C361.556 34.7043 362.098 34.3405 362.726 34.3405C364.386 34.3405 364.903 35.8376 364.903 37.1977C364.903 37.63 364.843 38.0712 364.763 38.4962C364.672 38.9727 364.552 39.4409 364.395 39.9011C364.255 40.361 364.083 40.8069 363.89 41.2478C363.71 41.6595 363.49 42.0766 363.212 42.4342C362.981 42.7301 362.736 43.0159 362.484 43.2942C362.162 43.6777 361.832 44.0542 361.495 44.4245C361.101 44.8568 360.697 45.2811 360.29 45.7018C359.841 46.1664 359.369 46.6116 358.9 47.015C357.354 48.4083 355.791 49.7833 354.225 51.1556C352.701 52.4917 351.075 53.7229 349.355 54.8117C347.685 55.8689 345.907 56.7412 344.03 57.3953C342.05 58.0856 339.96 58.3572 337.862 58.3393C336.734 58.3297 335.625 58.1341 334.562 57.7655C333.452 57.381 332.421 56.8252 331.484 56.1319C330.515 55.416 329.685 54.5594 328.997 53.5832C328.73 53.2043 328.492 52.8112 328.284 52.4047C328.008 52.68 327.732 52.9546 327.455 53.2285C326.609 54.0653 325.745 54.8858 324.876 55.6999C323.971 56.5476 323.032 57.3624 322.067 58.1457C321.093 58.9366 320.082 59.6874 319.021 60.3644C318.337 60.8003 317.611 61.1856 316.887 61.5528C316.053 61.9755 315.199 62.3596 314.307 62.7195C313.407 63.0645 312.49 63.368 311.573 63.5842C310.707 63.8047 309.807 63.9458 308.91 63.9458C307.563 63.9458 306.336 63.5257 305.317 62.6641C304.412 61.8978 303.68 60.9823 303.12 59.95C302.56 58.916 302.148 57.8193 301.883 56.6791C301.65 55.6727 301.483 54.6174 301.483 53.5835C301.483 53.0914 301.504 52.6009 301.544 52.1119H301.541ZM22.8035 28.2143C22.5055 29.2283 22.2145 30.2441 21.9221 31.2594C21.5055 32.7051 21.1148 34.1575 20.7186 35.6088C20.3641 36.9074 20.0294 38.2107 19.7066 39.5173C19.4282 40.6459 19.1426 41.7728 18.8573 42.8997C18.6031 43.9035 18.3523 44.9079 18.1063 45.9134C18.1 45.928 18.0994 45.9403 18.0956 45.9548C17.2856 48.8472 16.5199 51.7559 15.7463 54.658C15.1284 56.9759 14.7859 59.3493 14.7859 61.7456C14.7859 62.3752 14.8565 63.0346 14.9204 63.6612C15.0227 64.6643 15.1804 65.6681 15.3615 66.6599C15.5622 67.7623 15.7208 68.8726 15.831 69.9869C15.9173 70.8595 15.9784 71.7408 15.9784 72.618C15.9784 73.9349 15.25 75.2531 14.4887 76.3013C13.6599 77.4429 12.4756 78.5578 10.9418 78.5578C10.4833 78.5578 10.0055 78.5077 9.54961 78.4579C9.17529 78.4171 8.77646 78.3746 8.39944 78.3746C5.84817 78.3746 4.26156 76.736 3.40373 74.5219C2.578 72.3899 2.17029 70.1632 2.17029 67.8845C2.17029 66.9344 2.42882 65.8368 2.66671 64.918C2.85261 64.2008 3.0342 63.4823 3.21229 62.7631C3.44842 61.8105 3.70847 60.8628 3.95308 59.9122C3.95938 59.8953 3.96126 59.8813 3.9663 59.8647C4.20513 59.0618 4.43205 58.2559 4.64532 57.4464C4.74085 57.0841 4.83258 56.7206 4.92849 56.3587C5.53345 54.0835 6.14597 51.8104 6.76736 49.5392C7.25666 47.7502 7.74655 45.9611 8.24372 44.1744C8.69211 42.5634 9.13396 40.9511 9.57619 39.3383C10.0658 37.5536 10.5326 35.7632 11.0389 33.9825C11.5573 32.1579 12.095 30.3394 12.6461 28.5241C13.0681 27.1338 13.4138 25.7226 13.6725 24.3367C13.8441 23.2191 14.0072 22.0706 14.2323 20.9622C14.4016 20.1288 14.6561 19.3156 14.939 18.5131C15.2256 17.7006 15.5423 16.898 15.8777 16.1035C16.5571 14.4924 17.7366 12.8671 19.7139 12.8671C21.6166 12.8671 23.7231 12.9992 25.549 13.5531C27.4096 14.1176 28.7161 15.4712 29.6244 17.0551C30.0711 17.7793 30.4823 18.5263 30.804 19.2847C31.1419 20.0408 31.4104 20.8204 31.6472 21.6114C31.899 22.4518 32.1313 23.2985 32.3511 24.1474C32.6298 25.2249 32.8769 26.3114 33.1028 27.4005C33.2154 27.9427 33.3611 28.4789 33.5771 28.9916C33.8633 29.671 34.1196 30.3642 34.3799 31.0536C34.3862 31.0692 34.3906 31.0828 34.3956 31.0991C36.6964 37.9504 40.0485 44.4258 44.0488 50.4816C44.1622 50.4052 44.2703 50.3321 44.3696 50.2641C44.6852 50.0273 45.0115 49.7882 45.3086 49.531C45.3187 49.522 45.3269 49.515 45.3376 49.5063C45.5194 49.3576 45.705 49.1919 45.848 49.0067C45.8599 48.9914 45.8701 48.9784 45.8826 48.9635C46.3293 48.4322 46.75 47.8777 47.1557 47.3159C47.6109 46.685 48.0139 46.0166 48.3844 45.3356C48.3938 45.3184 48.402 45.3037 48.4121 45.2868C49.2812 43.8394 50.1441 42.3881 51.0203 40.9447C51.8525 39.5743 52.8144 38.2804 53.9185 37.105C53.928 37.0947 53.9362 37.0861 53.9463 37.0761C54.5274 36.4937 55.0675 35.8362 55.5947 35.207C56.359 34.2953 57.1083 33.3709 57.8477 32.4399C58.6018 31.4902 59.3668 30.5495 60.1372 29.6125C60.6815 28.9504 61.2264 28.288 61.7781 27.6316C61.7913 27.6163 61.8027 27.6033 61.8159 27.5887C62.2991 27.0614 62.775 26.5275 63.2295 25.9767C63.6458 25.4719 64.0597 24.965 64.4617 24.449C64.9141 23.8672 65.3737 23.2911 65.8258 22.709C66.3861 21.9879 66.9279 21.2521 67.4783 20.5239C67.4997 20.496 67.518 20.4728 67.5415 20.4465C67.9898 19.9375 68.4207 19.4062 68.882 18.8664C69.1475 18.5695 69.4041 18.2664 69.6535 17.9566C69.8159 17.7551 70.0019 17.5405 70.1439 17.3253C70.1571 17.3061 70.1684 17.2898 70.1823 17.2709C70.793 16.4392 71.3943 15.6014 71.9801 14.7524C72.7127 13.6912 73.4016 12.5957 74.0881 11.4778C74.7876 10.3841 75.4997 9.29831 76.2211 8.21849C76.7342 7.45052 77.2552 6.6828 77.8032 5.93838C78.2605 5.25473 79.0258 4.96817 79.8433 4.95752C80.6141 4.91499 81.4057 5.12656 82.1134 5.40515C82.8924 5.71161 83.6461 6.08486 84.3603 6.51517C85.0526 6.9322 85.7224 7.41462 86.2943 7.98043C86.9112 8.59104 87.3801 9.35112 87.2811 10.2287C87.2698 10.7171 87.1723 11.2079 86.9498 11.6139C86.7567 11.9888 86.5096 12.3444 86.2526 12.6811C86.0411 12.9962 85.8279 13.31 85.6255 13.5872C85.6116 13.6078 85.589 13.6414 85.5877 13.6151C85.5877 13.8635 85.5239 14.084 85.4515 14.3181C85.4453 14.3314 85.444 14.3423 85.4402 14.3536C85.3905 14.5067 85.3587 14.7085 85.3259 14.8679C85.3184 14.9051 85.3108 14.9367 85.2995 14.9735C85.1682 15.4204 85.0242 15.8624 84.8853 16.3073C84.8777 16.3313 84.8708 16.3515 84.862 16.3751C84.7958 16.5517 84.7184 16.7589 84.6764 16.9425C84.6701 16.9711 84.6632 16.9957 84.655 17.0239C84.3766 17.9579 84.178 18.9062 84.0552 19.8715C83.9248 20.8935 83.8774 21.9308 83.8774 22.9604C83.8774 25.2352 83.7791 27.5083 83.6089 29.7513C83.5413 30.9616 83.4192 32.1705 83.2892 33.3758C83.1486 34.6791 83.007 35.982 82.8657 37.2853C82.7231 38.6012 82.5736 39.9157 82.4252 41.2309C82.288 42.4475 82.1471 43.6644 81.987 44.8392C81.7629 46.9782 81.611 49.1248 81.5063 51.2728C81.3926 53.6011 81.351 55.9333 81.351 58.2643C81.351 60.3501 81.3932 62.4386 81.4449 64.5235C81.5128 67.2828 81.5704 70.042 81.6227 72.8013C81.9727 73.0971 82.3727 73.3777 82.7271 73.6241C83.4324 74.062 84.1729 74.5628 84.7758 75.1269C84.7897 75.1398 84.8016 75.1511 84.8148 75.1647C85.4709 75.8298 85.7603 76.6815 85.7603 77.5959C85.7603 79.3338 84.7568 80.7663 83.4681 81.8853C82.2059 82.9816 80.6711 83.8413 78.9347 83.8413C74.5191 83.8413 72.3732 80.5099 71.3973 76.7456C70.3109 72.5565 69.7551 68.2643 69.7551 63.9448C69.7551 62.5369 69.8389 61.1297 70.0345 59.7345C70.2214 58.3994 70.3952 57.0629 70.5303 55.7221C70.6699 54.3365 70.8152 52.952 70.9718 51.568C71.226 49.3227 71.4853 47.0781 71.7406 44.8332C71.9736 42.7866 72.2152 40.7392 72.4301 38.6908C72.5179 37.8547 72.5929 37.0054 72.7 36.1719C72.7 36.1587 72.7 36.1477 72.7063 36.1347C72.7548 35.8277 72.7759 35.4963 72.8066 35.1861C72.8701 34.5473 72.9489 33.9088 73.0305 33.2719C73.1987 31.9514 73.369 30.6232 73.4795 29.2971C73.5192 28.8176 73.558 28.3308 73.5839 27.8441C72.882 28.7601 72.1754 29.6763 71.4684 30.6223C69.9773 32.5232 68.5094 34.4397 67.0609 36.3715C67.0534 36.3815 67.0471 36.3898 67.0396 36.3994C66.4622 37.1282 65.9074 37.8733 65.3427 38.6111C64.7656 39.3649 64.1928 40.1209 63.6069 40.868C62.9382 41.7213 62.2673 42.5727 61.6023 43.4287C60.7585 44.5148 59.9427 45.6241 59.1275 46.7308C57.1409 49.4267 55.1705 52.1341 53.2331 54.8635C53.0812 55.1052 52.9106 55.3416 52.7386 55.5698C52.4797 55.9546 52.1985 56.3275 51.9358 56.7106C51.6205 57.1705 51.0943 58.0109 50.6828 58.4508C49.0559 60.5371 46.7473 63.0032 44.0804 63.7412C43.8235 63.8123 43.5849 63.8116 43.3283 63.7393C40.6246 62.9796 37.9679 61.6368 36.5154 59.1877C36.2619 58.76 36.0087 58.3314 35.7709 57.8954C35.5928 57.57 35.4051 57.2499 35.2201 56.9286C35.0369 56.6101 34.839 56.3004 34.6554 55.9819C34.4633 55.6482 34.2627 55.3188 34.0665 54.9871C33.5018 54.0331 32.9494 53.0729 32.4052 52.1076C31.9646 51.3264 31.5111 50.5524 31.071 49.7708C30.2449 48.3041 29.4755 46.8073 28.7651 45.2839C28.0018 43.6462 27.3248 41.9701 26.7014 40.2432C26.3923 39.3158 26.0961 38.3834 25.7791 37.4587C25.6058 36.9523 25.4441 36.4207 25.2492 35.9233C25.2423 35.9051 25.236 35.8895 25.2303 35.8709C25.0634 35.3844 24.9045 34.8954 24.7407 34.3761C24.5326 33.6578 24.3083 32.9436 24.0984 32.2258C23.8531 31.3877 23.5918 30.5539 23.3133 29.7258C23.1438 29.2218 22.9759 28.7174 22.805 28.2141L22.8035 28.2143ZM524.364 7.75396C524.031 9.52244 523.256 11.099 521.918 12.3102C520.492 13.66 518.678 14.0488 516.745 13.7038C515.512 13.4843 514.303 13.0663 513.138 12.5645C511.813 11.9672 510.54 10.9359 510.838 9.35738C511.124 7.83867 511.888 6.5231 513.008 5.43834C514.084 4.39604 515.312 3.55367 516.713 2.97959C516.736 2.97032 516.756 2.96265 516.78 2.95432C517.491 2.7053 518.568 2.3387 519.326 2.47389C520.621 2.70498 522.037 3.09609 523.109 3.86976C524.405 4.80511 524.641 6.28637 524.364 7.75396Z" fill="white"/>
</svg>
