<svg width="80" height="80" viewBox="0 0 80 80" fill="none" xmlns="http://www.w3.org/2000/svg">
<g clip-path="url(#clip0)">
<path d="M55.6561 68.1757C54.9219 66.792 53.7207 65.6464 52.1606 65C41.9318 60.7629 32.981 54.1608 25.9686 45.8545C23.0969 42.453 20.5511 38.7653 18.3752 34.8383C17.7374 34.7058 17.077 34.6362 16.4001 34.6362C11.5674 34.6362 7.56287 38.1732 6.83044 42.7997C9.06738 46.684 11.6083 50.3656 14.422 53.8129C22.9852 64.3042 34.0765 72.6294 46.8152 77.9059C50.379 79.3823 54.4647 77.6898 55.9406 74.126C56.7706 72.1216 56.5991 69.9524 55.6561 68.1757Z" fill="#C78F70"/>
<path d="M52.1605 65C53.7205 65.6464 54.9217 66.792 55.6559 68.175L65.009 40.8258L73.4465 16.1548L53.1004 23.4094L18.8218 35.6317C26.3328 48.7744 38.0259 59.1455 52.1605 65Z" fill="#E9BC82"/>
<path fill-rule="evenodd" clip-rule="evenodd" d="M30.3255 19.0259C30.3242 19.2554 30.3102 19.4855 30.2797 19.7162C29.8799 22.7527 27.0949 24.8901 24.0584 24.4904C22.9951 24.3506 22.0424 23.9166 21.2697 23.2831C21.2501 26.04 23.2857 28.4442 26.0896 28.8135C29.1261 29.2133 31.9118 27.0758 32.3115 24.0393C32.5624 22.1295 31.8037 20.2356 30.3255 19.0259Z" fill="#C22C65"/>
<path d="M44.9183 30.1752C45.318 27.1387 48.1031 25.0018 51.1396 25.4016C51.9959 25.5139 52.7802 25.8166 53.4571 26.261C53.1153 23.8592 51.2146 21.8793 48.6914 21.5472C45.6556 21.1474 42.8699 23.2849 42.4701 26.3208C42.1833 28.501 43.2044 30.5517 44.9268 31.6827C44.8572 31.1944 44.8505 30.6885 44.9183 30.1752Z" fill="white"/>
<path d="M53.4658 27.7685C53.5336 27.2552 53.5269 26.7499 53.4573 26.261C52.781 25.8166 51.9961 25.5139 51.1398 25.4016C48.1033 25.0018 45.3183 27.1387 44.9185 30.1752C44.8507 30.6885 44.8574 31.1945 44.927 31.6827C45.6033 32.1271 46.3882 32.4298 47.2445 32.5427C50.2804 32.9425 53.0661 30.805 53.4658 27.7685Z" fill="#C22C65"/>
<path d="M44.9461 48.9337C45.3459 45.8972 48.1315 43.7597 51.1674 44.1595C51.7442 44.2358 52.288 44.3976 52.7879 44.6313C52.1134 42.7289 50.4228 41.264 48.2847 40.9826C45.2482 40.5829 42.4626 42.7203 42.0634 45.7568C41.7393 48.2165 43.0808 50.5115 45.2165 51.5069C44.9333 50.7074 44.8277 49.8321 44.9461 48.9337Z" fill="white"/>
<path d="M53.0593 47.2041C53.1777 46.3062 53.0721 45.4304 52.7889 44.6314C52.2884 44.3983 51.7446 44.2359 51.1684 44.1596C48.1319 43.7599 45.3463 45.8979 44.9465 48.9338C44.8287 49.8322 44.9337 50.7081 45.2169 51.507C45.7174 51.7402 46.2612 51.9025 46.838 51.9782C49.8739 52.378 52.6595 50.2406 53.0593 47.2041Z" fill="#C22C65"/>
<path d="M65.659 24.1254C66.0588 21.0889 68.8445 18.9514 71.8804 19.3512C72.0311 19.3707 72.1794 19.3976 72.3265 19.4293L72.6415 18.5083C71.7546 17.4982 70.5309 16.8445 69.1985 16.6687C66.162 16.2689 63.3763 18.4064 62.9765 21.4429C62.6524 23.9038 63.9958 26.1999 66.1333 27.1948C65.6999 26.2689 65.5156 25.2136 65.659 24.1254Z" fill="white"/>
<path d="M69.5287 27.6105L72.3265 19.4293C72.1794 19.3976 72.0305 19.3707 71.8803 19.3512C68.8445 18.9514 66.0588 21.0888 65.659 24.1253C65.5156 25.2136 65.6999 26.2689 66.1327 27.1942C66.6325 27.4267 67.1751 27.5885 67.7507 27.6642C68.3427 27.7423 68.9427 27.724 69.5287 27.6105Z" fill="#C22C65"/>
<path d="M79.5351 0.450528C79.1078 0.0287758 78.4767 -0.111605 77.9121 0.0904212L13.0136 23.2306C10.7589 21.8519 7.89885 21.529 5.27617 22.6154C0.92193 24.419 -1.15326 29.4281 0.650324 33.7824C4.90325 44.0497 11.044 53.2397 18.9016 61.0974C26.7599 68.9556 35.9499 75.0958 46.2166 79.3487C47.2829 79.7906 48.3883 79.9993 49.4765 79.9993C52.8316 79.9993 56.0219 78.0108 57.3842 74.7234C58.3004 72.5109 58.2137 70.13 57.3372 68.0859L79.9153 2.06796C80.1094 1.50033 79.9617 0.87167 79.5351 0.450528ZM30.7613 23.8349C30.6228 24.8896 30.0814 25.8271 29.2373 26.4746C28.3932 27.1228 27.3483 27.4024 26.293 27.2638C25.2383 27.1247 24.3008 26.5839 23.6532 25.7398C23.0569 24.9622 22.7725 24.0131 22.8402 23.0445L29.7183 20.5921C30.5258 21.4527 30.9194 22.6368 30.7613 23.8349ZM54.4967 73.5272C53.3529 76.289 50.1742 77.6055 47.4129 76.4611C27.4063 68.1744 11.8246 52.5928 3.53789 32.5867C2.98369 31.2488 2.98369 29.7748 3.53789 28.4369C4.09209 27.099 5.13396 26.0566 6.47185 25.5024C7.81034 24.9482 9.28373 24.9482 10.6216 25.5024C11.9595 26.0566 13.002 27.099 13.5562 28.4369C17.1029 37.0001 22.225 44.6655 28.7795 51.2201C35.3335 57.774 42.9989 62.8961 51.5627 66.4434C54.3245 67.5872 55.6411 70.7653 54.4967 73.5272ZM67.9543 26.1145C66.8996 25.9754 65.9621 25.4346 65.3145 24.5905C64.6669 23.7464 64.3868 22.7008 64.5253 21.6462C64.8122 19.469 66.816 17.931 68.9937 18.2172C69.6657 18.3057 70.2968 18.5663 70.8345 18.9631L68.3785 26.1444C68.2369 26.1414 68.0953 26.1328 67.9543 26.1145ZM71.8733 15.9247C71.1122 15.5103 70.2754 15.2344 69.402 15.1191C65.5159 14.6064 61.9387 17.353 61.4272 21.2384C61.1794 23.1208 61.6793 24.9866 62.8353 26.493C63.9485 27.9438 65.5422 28.8916 67.3403 29.1803L64.2348 38.2617L60.663 35.5213C59.9782 34.9957 58.9974 35.1245 58.4719 35.8093C57.947 36.4942 58.0757 37.475 58.7606 38.0005L63.1673 41.3818L55.0905 65C54.413 64.4104 53.6324 63.9178 52.759 63.5559C36.1996 56.6968 23.3029 43.8 16.4438 27.2406C16.2051 26.6651 15.9091 26.1304 15.5673 25.6379L19.7518 24.1455C19.8977 25.4065 20.3817 26.6089 21.1746 27.6422C22.33 29.148 24.0035 30.1142 25.8853 30.362C26.2008 30.4035 26.5151 30.4242 26.8276 30.4242C28.3822 30.4242 29.8861 29.9164 31.1398 28.9539C32.6461 27.7985 33.6123 26.1249 33.8601 24.2426C34.0823 22.5531 33.688 20.879 32.8024 19.4928L52.2255 12.5672L52.9616 14.3445C53.2113 14.9463 53.7929 15.3095 54.4057 15.3095C54.6053 15.3095 54.8079 15.2711 55.0032 15.1905C55.8004 14.8603 56.1788 13.946 55.8492 13.1489L55.1729 11.5168L75.9102 4.1224L71.8733 15.9247Z" fill="black"/>
<path d="M16.8524 41.8834C16.3739 41.1656 15.4052 40.9734 14.6875 41.4513C13.9709 41.9286 13.7762 42.8972 14.2505 43.615C14.5501 44.0746 15.0506 44.3254 15.5621 44.3254C15.8514 44.3254 16.1444 44.2455 16.4056 44.077C17.1313 43.6107 17.3413 42.6439 16.875 41.9182C16.8701 41.9109 16.8573 41.8907 16.8524 41.8834Z" fill="black"/>
<path d="M14.4989 38.0365C12.9761 35.3668 11.6071 32.5726 10.4303 29.732C10.1001 28.9349 9.18582 28.5565 8.3887 28.8867C7.59159 29.2169 7.21317 30.1312 7.54337 30.9283C8.77017 33.8891 10.1972 36.8017 11.7841 39.5843C12.0728 40.0897 12.6001 40.3735 13.1427 40.3735C13.4052 40.3735 13.6713 40.307 13.9154 40.1678C14.665 39.74 14.9262 38.786 14.4989 38.0365Z" fill="black"/>
<path d="M48.8959 19.9982C48.5859 19.9573 48.2715 19.9365 47.9609 19.9365C44.4117 19.9365 41.3849 22.5934 40.9211 26.1169C40.4096 30.0024 43.1543 33.5797 47.0398 34.0918C47.3499 34.1327 47.6642 34.1528 47.9749 34.1528C51.5241 34.1528 54.5508 31.496 55.0147 27.9724C55.5262 24.0869 52.7814 20.5096 48.8959 19.9982ZM51.9165 27.5647C51.6565 29.5392 49.9622 31.0278 47.9749 31.0278C47.8003 31.0278 47.6227 31.0162 47.4482 30.9937C45.2704 30.7068 43.733 28.7018 44.0192 26.5247C44.2792 24.5502 45.9736 23.0615 47.9609 23.0615C48.1354 23.0615 48.313 23.0731 48.4876 23.0963C50.6647 23.3832 52.2028 25.3876 51.9165 27.5647Z" fill="black"/>
<path d="M48.4891 39.4337C48.1791 39.3928 47.8648 39.3721 47.5541 39.3721C44.0043 39.3721 40.9782 42.0289 40.5143 45.5525C40.2665 47.4348 40.7664 49.3013 41.9224 50.807C43.0778 52.3134 44.7507 53.2795 46.6331 53.5273C46.9431 53.5682 47.2575 53.589 47.5675 53.589C51.1173 53.589 54.1441 50.9315 54.6079 47.408C55.1194 43.5225 52.3746 39.9452 48.4891 39.4337ZM51.5098 47.0002C51.2498 48.9747 49.5548 50.464 47.5675 50.464C47.393 50.464 47.216 50.4524 47.0414 50.4292C45.9867 50.29 45.0492 49.7487 44.401 48.9051C43.7534 48.061 43.4733 47.0155 43.6124 45.9602C43.8724 43.9863 45.5668 42.4971 47.5541 42.4971C47.7286 42.4971 47.9063 42.5087 48.0808 42.5319C50.2579 42.8187 51.796 44.8231 51.5098 47.0002Z" fill="black"/>
<path d="M38.1836 32.9603L33.3814 32.3279C32.5263 32.2144 31.7408 32.8174 31.6279 33.6732C31.5149 34.5289 32.1174 35.3138 32.9731 35.4261L37.7753 36.0584C37.8449 36.0676 37.9133 36.0718 37.9816 36.0718C38.7537 36.0718 39.4251 35.4999 39.5282 34.7132C39.6412 33.8581 39.0394 33.0732 38.1836 32.9603Z" fill="black"/>
<path d="M35.3241 41.2682C35.2118 40.4125 34.4269 39.8101 33.5712 39.923C32.7155 40.0359 32.1137 40.8209 32.226 41.6766L32.6502 44.8986C32.754 45.6854 33.4253 46.2579 34.1974 46.2579C34.2652 46.2579 34.3342 46.253 34.4031 46.2438C35.2588 46.1315 35.8613 45.3466 35.7483 44.4909L35.3241 41.2682Z" fill="black"/>
</g>
<defs>
<clipPath id="clip0">
<rect width="80" height="80" fill="white"/>
</clipPath>
</defs>
</svg>
