<svg width="80" height="80" viewBox="0 0 80 80" fill="none" xmlns="http://www.w3.org/2000/svg">
<g clip-path="url(#clip0)">
<path fill-rule="evenodd" clip-rule="evenodd" d="M40 10.9375L52.5 6.25L40 1.5625V10.9375Z" fill="#DB0090"/>
<path fill-rule="evenodd" clip-rule="evenodd" d="M12.9375 35.9375H23.0443L33.1511 22.8986L12.9375 35.9375Z" fill="#99C454"/>
<path fill-rule="evenodd" clip-rule="evenodd" d="M29.2157 35.9375H40V22.0251L29.2157 35.9375Z" fill="#FFBD50"/>
<path fill-rule="evenodd" clip-rule="evenodd" d="M46.3281 35.9375H56.9556L46.3281 22.2266V35.9375Z" fill="#99C454"/>
<path fill-rule="evenodd" clip-rule="evenodd" d="M63.8696 35.9375H73.9111L53.8281 22.9822L63.8696 35.9375Z" fill="#FFBD50"/>
<path fill-rule="evenodd" clip-rule="evenodd" d="M17.1276 47.5299C17.274 47.5879 17.4224 47.641 17.5725 47.6917C20.2031 46.8073 22.2875 44.7894 23.0443 42.1875V35.9375H12.1038V42.1875C12.8173 44.6405 14.7094 46.5753 17.1276 47.5299Z" fill="#99C454"/>
<path fill-rule="evenodd" clip-rule="evenodd" d="M34.53 47.6917C36.7914 46.9305 38.6481 45.3339 39.6051 43.2471C39.7723 42.7393 39.9048 42.3303 40 42.0349C39.7552 41.1212 39.7638 41.1511 40 41.8829V35.9375H29.0594V42.1875C29.8163 44.7894 31.9 46.8066 34.53 47.6917Z" fill="#FFBD50"/>
<path fill-rule="evenodd" clip-rule="evenodd" d="M46.04 41.9592C46.2378 41.347 46.2506 41.3092 46.0602 42.0209C46.1816 42.3981 46.3525 42.923 46.5686 43.5718C47.5635 45.4987 49.342 46.9708 51.4844 47.6917C54.115 46.8073 56.1987 44.7894 56.9556 42.1875V35.9375H46.0156V41.8829C46.0236 41.9073 46.0315 41.933 46.04 41.9592Z" fill="#99C454"/>
<path fill-rule="evenodd" clip-rule="evenodd" d="M68.4421 47.6917C68.5923 47.641 68.7406 47.5879 68.8871 47.5299C71.3053 46.5753 73.198 44.6405 73.9109 42.1875V35.9375H62.9709V42.1875C63.7272 44.7894 65.8115 46.8066 68.4421 47.6917Z" fill="#FFBD50"/>
<path fill-rule="evenodd" clip-rule="evenodd" d="M39.6051 43.2471C38.2477 46.2048 35.0842 48.1818 31.5216 48.1818C27.5494 48.1818 24.0723 45.7233 23.0444 42.1875C22.3328 44.6338 20.4486 46.5637 18.0402 47.5214L17.9309 48.9508L15.6769 78.4375H17.439C28.4406 75.4895 37.3157 50.1868 39.6051 43.2471Z" fill="#F1DBC8"/>
<path fill-rule="evenodd" clip-rule="evenodd" d="M69.4017 54.2644L68.8872 47.5298C67.8197 47.9515 66.6497 48.1816 65.4332 48.1816C61.7876 48.1816 58.5601 46.1095 57.2588 43.0352C57.0452 43.076 56.8285 43.1096 56.61 43.1365C55.5254 45.6017 53.1938 47.4034 50.4119 47.9821C54.7393 58.7358 61.9774 73.217 70.3795 75.4686H71.0228L69.4017 54.2644Z" fill="#F1DBC8"/>
<path fill-rule="evenodd" clip-rule="evenodd" d="M44.1923 53.5449C40.098 63.5236 33.4757 76.3873 25.8237 78.4375H62.5608C54.9082 76.3873 48.2865 63.5236 44.1923 53.5449Z" fill="#C22C65"/>
<path d="M75.4735 42.1552V35.9375C75.4735 35.9326 75.4729 35.9283 75.4729 35.9241C75.4723 35.8923 75.4705 35.8606 75.468 35.8282C75.4668 35.8075 75.4662 35.7867 75.4638 35.766C75.4607 35.741 75.4564 35.7166 75.4522 35.6921C75.4479 35.6653 75.4448 35.6384 75.4387 35.6116C75.4357 35.5963 75.4308 35.5817 75.4271 35.5664C75.4192 35.5316 75.4107 35.4974 75.4003 35.4639C75.3978 35.4565 75.3948 35.4492 75.3923 35.4419C75.3789 35.4016 75.3649 35.3619 75.3478 35.3229C75.3423 35.3101 75.335 35.2972 75.3295 35.2844C75.3142 35.2521 75.3002 35.2197 75.2831 35.1892C75.2648 35.155 75.244 35.1227 75.2227 35.0897C75.2166 35.0806 75.2117 35.0714 75.2062 35.0623C75.1812 35.0256 75.1537 34.9902 75.1256 34.9554C75.1226 34.9512 75.1195 34.9463 75.1159 34.942C75.0927 34.9139 75.0676 34.8877 75.042 34.8608C75.0322 34.8505 75.0231 34.8395 75.0127 34.8291C74.9932 34.8096 74.9718 34.7919 74.9504 34.7729C74.9327 34.7571 74.915 34.7406 74.8967 34.7247C74.8803 34.7113 74.8619 34.6991 74.8449 34.6863C74.8198 34.668 74.7948 34.649 74.7686 34.6313C74.7649 34.6289 74.7612 34.6259 74.7576 34.6234L41.5624 13.2111V12.0203L53.048 7.71301C53.6583 7.48413 54.0624 6.90125 54.0624 6.25C54.0624 5.59875 53.6583 5.01587 53.048 4.78699L40.5486 0.0994873C40.54 0.0964356 40.5315 0.0946045 40.523 0.0915528C40.4808 0.0769044 40.4387 0.0634766 40.3954 0.0524903C40.3795 0.0482178 40.3637 0.0439453 40.3478 0.0402831C40.3032 0.0299072 40.2581 0.022583 40.2129 0.0164795C40.1989 0.0146484 40.1854 0.0115967 40.172 0.00976562C40.1152 0.00366211 40.0579 0 39.9999 0C39.9987 0 39.9974 0 39.9968 0C39.9865 0 39.9773 0.0012207 39.9669 0.00183106C39.9181 0.00244141 39.8687 0.00549316 39.8204 0.0109863C39.8033 0.0128174 39.7869 0.0164795 39.7698 0.0183106C39.7283 0.0250244 39.6862 0.0323486 39.6459 0.0415039C39.6288 0.0457764 39.6117 0.0500487 39.5946 0.0549316C39.5531 0.065918 39.5128 0.0787353 39.4731 0.0927734C39.4573 0.0982666 39.442 0.10376 39.4274 0.109863C39.381 0.127563 39.337 0.147705 39.2931 0.170288C39.2852 0.174561 39.276 0.178223 39.2675 0.182495C39.215 0.210571 39.1643 0.241089 39.1155 0.274658C39.1137 0.275879 39.1118 0.276489 39.1094 0.27832C39.1021 0.283203 39.096 0.289307 39.0886 0.2948C39.0508 0.321655 39.0142 0.350342 38.9788 0.380859C38.9641 0.393677 38.9501 0.406494 38.936 0.419922C38.9067 0.446777 38.8787 0.474853 38.8518 0.504761C38.839 0.518188 38.8262 0.532227 38.814 0.546265C38.7828 0.582886 38.7529 0.620727 38.7255 0.65979C38.72 0.667114 38.7145 0.673828 38.7096 0.681152C38.676 0.72937 38.6461 0.780029 38.6187 0.831909C38.6144 0.840454 38.6101 0.849609 38.6058 0.858154C38.5839 0.900879 38.5643 0.945435 38.5466 0.990601C38.5405 1.00525 38.5356 1.0199 38.5302 1.03455C38.5161 1.07544 38.5027 1.11633 38.4917 1.15845C38.4874 1.17493 38.4825 1.19141 38.4789 1.20789C38.4691 1.25061 38.4612 1.29333 38.4551 1.33728C38.4526 1.35254 38.4496 1.36841 38.4478 1.38367C38.441 1.44226 38.4368 1.50146 38.4368 1.56189V13.2104L5.24158 34.624C5.23792 34.6265 5.23425 34.6295 5.23059 34.632C5.20435 34.6497 5.17932 34.6686 5.1543 34.6875C5.1366 34.7003 5.1189 34.7119 5.10242 34.7253C5.0835 34.7412 5.06641 34.7577 5.04871 34.7736C5.02734 34.7925 5.00598 34.8102 4.98645 34.8297C4.97607 34.8401 4.96692 34.8511 4.95715 34.8615C4.93152 34.8883 4.90649 34.9146 4.8833 34.9426C4.87964 34.9469 4.87659 34.9518 4.87354 34.9561C4.84546 34.9908 4.81799 35.0262 4.79297 35.0629C4.78748 35.072 4.78198 35.0812 4.77649 35.0903C4.75574 35.1233 4.73437 35.1562 4.71606 35.1898C4.69897 35.2209 4.68494 35.2527 4.66968 35.285C4.66418 35.2979 4.65686 35.3107 4.65137 35.3235C4.63489 35.3625 4.62024 35.4022 4.60681 35.4425C4.60437 35.4498 4.60132 35.4572 4.59888 35.4645C4.5885 35.498 4.57996 35.5322 4.57202 35.567C4.56836 35.5823 4.56348 35.5969 4.56042 35.6122C4.55432 35.639 4.55066 35.6659 4.547 35.6927C4.54272 35.7172 4.53845 35.7416 4.5354 35.7666C4.53296 35.7874 4.53235 35.8081 4.53113 35.8289C4.52869 35.8612 4.52686 35.8929 4.52625 35.9247C4.52625 35.929 4.52563 35.9332 4.52563 35.9381V42.1558V42.1637V42.1875C4.52563 42.2003 4.52747 42.2131 4.52747 42.2266C4.52869 42.262 4.52991 42.2968 4.53296 42.3328C4.5354 42.3572 4.53906 42.3816 4.54272 42.4054C4.54639 42.4316 4.54944 42.4573 4.55432 42.4829C4.56104 42.5165 4.56958 42.5494 4.57813 42.5818C4.58179 42.5958 4.58362 42.6099 4.58789 42.6233C4.58911 42.6282 4.59094 42.6331 4.59216 42.6379C4.59521 42.6477 4.59888 42.6581 4.60193 42.6678C5.34961 45.191 7.14343 47.251 9.47192 48.4851L7.30212 76.875H6.08813C5.2251 76.875 4.52563 77.5745 4.52563 78.4375C4.52563 79.3005 5.2251 80 6.08813 80H6.08997H6.09058H6.08813H6.09058H71.245H71.2481H71.2523H73.911C74.7741 80 75.4735 79.3005 75.4735 78.4375C75.4735 77.5745 74.7741 76.875 73.911 76.875H72.697L70.5272 48.4851C72.8557 47.251 74.6502 45.191 75.3978 42.6678C75.4009 42.6581 75.4039 42.6483 75.407 42.6379C75.4082 42.6331 75.41 42.6282 75.4113 42.6233C75.4155 42.6099 75.418 42.5958 75.421 42.5818C75.4302 42.5494 75.4381 42.5165 75.4448 42.4829C75.4497 42.4573 75.4528 42.4316 75.4564 42.4054C75.4601 42.381 75.4638 42.3572 75.4662 42.3328C75.4699 42.2968 75.4705 42.262 75.4717 42.2266C75.4717 42.2131 75.4735 42.2003 75.4735 42.1875V42.1631C75.4735 42.1606 75.4735 42.1582 75.4735 42.1552ZM41.5624 40.7648V37.5H55.3929V41.947C54.4884 44.7083 51.6771 46.6193 48.4777 46.6193C45.6853 46.6193 43.1884 45.163 41.997 42.9572C41.8883 42.6324 41.7803 42.3022 41.6716 41.9702L41.5624 40.7648ZM38.3709 41.991C38.2964 42.2192 38.2219 42.4457 38.1481 42.6703C37.0238 45.036 34.4341 46.6199 31.5221 46.6199C28.3226 46.6199 25.512 44.7089 24.6068 41.9482V37.5H38.4374L38.3709 41.991ZM38.4374 34.375H26.2322L38.4374 18.6285V34.375ZM41.5624 18.6285L53.7676 34.375H41.5624V18.6285ZM22.2783 34.375H11.3933L33.1633 20.3314L22.2783 34.375ZM40.0267 46.8408C42.2911 53.2446 44.4304 58.0444 45.938 61.1371C49.5446 68.5309 53.2097 73.7927 56.8865 76.875H23.2927C26.9091 73.7732 30.5138 68.5626 34.0612 61.2891C35.5815 58.172 37.7428 53.3209 40.0267 46.8408ZM57.7214 34.375L46.8364 20.3314L68.6065 34.375H57.7214ZM41.5624 8.68286V3.81714L48.0498 6.25L41.5624 8.68286ZM7.65125 41.9476V37.5H21.4818V41.9476C20.5767 44.7089 17.7654 46.6193 14.5665 46.6193C11.3671 46.6193 8.5564 44.7083 7.65125 41.9476ZM12.0452 55.827H17.0092C17.8722 55.827 18.5717 55.1276 18.5717 54.2645C18.5717 53.4015 17.8722 52.702 17.0092 52.702H12.2838L12.5249 49.5526C13.1877 49.6777 13.8707 49.7443 14.5665 49.7443C18.0089 49.7443 21.1486 48.1421 23.0443 45.6122C24.9401 48.1421 28.0791 49.7443 31.5221 49.7443C33.1072 49.7443 34.6276 49.4043 35.9923 48.7915C34.1698 53.6505 32.4926 57.3773 31.2523 59.9188C26.4714 69.7205 21.6216 75.5737 17.2124 76.875H10.4363L12.0452 55.827ZM68.2811 60.1007H63.5558C62.6928 60.1007 61.9933 60.8002 61.9933 61.6632C61.9933 62.5262 62.6928 63.2257 63.5558 63.2257H68.5198L69.5635 76.875H63.2305C63.1462 76.8347 63.0584 76.8011 62.965 76.7761C58.5088 75.5817 53.5924 69.7003 48.7474 59.7668C47.5231 57.2571 45.8721 53.5907 44.0758 48.8208C45.4229 49.4147 46.9188 49.7449 48.4777 49.7449C51.9207 49.7449 55.0597 48.1421 56.9554 45.6128C58.8512 48.1421 61.9908 49.7449 65.4332 49.7449C66.129 49.7449 66.812 49.6777 67.4749 49.5526L68.2811 60.1007ZM65.4332 46.6193C62.2344 46.6193 59.4231 44.7089 58.5179 41.9482V37.5H72.3485V41.9476C71.4434 44.7083 68.6321 46.6193 65.4332 46.6193Z" fill="black"/>
<path d="M1.59912 76.875H1.5625C0.699463 76.875 0 77.5745 0 78.4375C0 79.3005 0.699463 80 1.5625 80H1.59912C2.46216 80 3.16162 79.3005 3.16162 78.4375C3.16162 77.5745 2.46216 76.875 1.59912 76.875Z" fill="black"/>
<path d="M78.437 76.875H78.4004C77.5374 76.875 76.8379 77.5745 76.8379 78.4375C76.8379 79.3005 77.5374 80 78.4004 80H78.437C79.3 80 79.9995 79.3005 79.9995 78.4375C79.9995 77.5745 79.3 76.875 78.437 76.875Z" fill="black"/>
<path d="M21.4984 55.8271H21.5356C22.3981 55.8271 23.0981 55.1277 23.0981 54.2646C23.0981 53.4016 22.3981 52.7021 21.5356 52.7021H21.4984C20.6354 52.7021 19.9359 53.4016 19.9359 54.2646C19.9359 55.1277 20.6354 55.8271 21.4984 55.8271Z" fill="black"/>
<path d="M59.0665 60.1006H59.0299C58.1669 60.1006 57.4674 60.8 57.4674 61.6631C57.4674 62.5261 58.1669 63.2256 59.0299 63.2256H59.0665C59.9296 63.2256 60.629 62.5261 60.629 61.6631C60.629 60.8007 59.9296 60.1006 59.0665 60.1006Z" fill="black"/>
</g>
<defs>
<clipPath id="clip0">
<rect width="80" height="80" fill="white"/>
</clipPath>
</defs>
</svg>
