<svg width="80" height="80" viewBox="0 0 80 80" fill="none" xmlns="http://www.w3.org/2000/svg">
<path d="M34.8438 1.5625H58.75V78.4375H34.8438V1.5625Z" fill="#FFBD50"/>
<path d="M36.2891 35.3992C36.2891 30.99 39.1553 27.2522 43.125 25.9412C42.1417 25.6165 41.0919 25.4382 40 25.4382C34.4989 25.4382 30.0391 29.8981 30.0391 35.3992C30.0391 40.9003 34.4989 45.3601 40 45.3601C41.0919 45.3601 42.1417 45.1819 43.125 44.8572C39.1553 43.5461 36.2891 39.8083 36.2891 35.3992Z" fill="white"/>
<path d="M49.9609 35.3992C49.9609 30.99 47.0947 27.2522 43.125 25.9412C39.1553 27.2522 36.2891 30.99 36.2891 35.3992C36.2891 39.8083 39.1553 43.5461 43.125 44.8572C47.0947 43.5461 49.9609 39.8083 49.9609 35.3992Z" fill="#A9D9DE"/>
<path d="M37.3456 62.3529C37.3456 58.5345 39.7491 55.2795 43.125 54.0137C42.1527 53.6487 41.0999 53.4485 40 53.4485C35.0824 53.4485 31.0956 57.4353 31.0956 62.3529C31.0956 67.2705 35.0824 71.2573 40 71.2573C41.0999 71.2573 42.1527 71.0565 43.125 70.6915C39.7491 69.4257 37.3456 66.17 37.3456 62.3529Z" fill="white"/>
<path d="M48.9044 62.3529C48.9044 58.5345 46.5009 55.2795 43.125 54.0137C39.7491 55.2795 37.3456 58.5345 37.3456 62.3529C37.3456 66.1707 39.7491 69.4257 43.125 70.6915C46.5009 69.4257 48.9044 66.17 48.9044 62.3529Z" fill="#A9D9DE"/>
<path fill-rule="evenodd" clip-rule="evenodd" d="M43.6133 13.3289C43.6133 15.3247 41.9958 16.9421 40 16.9421C38.0042 16.9421 36.3867 15.3247 36.3867 13.3289C36.3867 11.3336 38.0042 9.71558 40 9.71558C41.9958 9.71558 43.6133 11.3336 43.6133 13.3289Z" fill="#4BC1D7"/>
<path fill-rule="evenodd" clip-rule="evenodd" d="M43.6133 35.3992C43.6133 37.3944 41.9958 39.0125 40 39.0125C38.0042 39.0125 36.3867 37.3944 36.3867 35.3992C36.3867 33.4033 38.0042 31.7859 40 31.7859C41.9958 31.7859 43.6133 33.4033 43.6133 35.3992Z" fill="#4BC1D7"/>
<path fill-rule="evenodd" clip-rule="evenodd" d="M43.23 62.3528C43.23 64.1362 41.7834 65.5828 40 65.5828C38.2159 65.5828 36.77 64.1362 36.77 62.3528C36.77 60.5687 38.2159 59.1228 40 59.1228C41.7834 59.1228 43.23 60.5687 43.23 62.3528Z" fill="#4BC1D7"/>
<path d="M49.7683 11.2481C48.9071 11.2926 48.2443 12.0281 48.2895 12.8899C48.2968 13.0364 48.3004 13.1841 48.3004 13.3288C48.3004 14.7838 47.9159 16.2194 47.189 17.4791C46.7569 18.2262 47.0132 19.182 47.7603 19.6135C48.0063 19.7557 48.2754 19.8235 48.5403 19.8235C49.0805 19.8235 49.6054 19.5427 49.8947 19.0416C50.8963 17.3076 51.4254 15.3319 51.4254 13.3288C51.4254 13.1304 51.4206 12.9278 51.4102 12.7276C51.365 11.8657 50.6302 11.1998 49.7683 11.2481Z" fill="black"/>
<path d="M31.46 19.8228C31.7249 19.8228 31.9934 19.7557 32.2394 19.6135C32.9865 19.182 33.2428 18.2262 32.8113 17.4791C32.0838 16.2193 31.6992 14.7838 31.6992 13.3287C31.6992 11.8736 32.0838 10.4381 32.8113 9.17831C33.2428 8.43124 32.9865 7.47543 32.2394 7.04391C31.4923 6.6124 30.5365 6.86874 30.105 7.61581C29.1034 9.35043 28.5742 11.3255 28.5742 13.3287C28.5742 15.3319 29.1034 17.3076 30.105 19.0416C30.3943 19.5427 30.9198 19.8228 31.46 19.8228Z" fill="black"/>
<path d="M40 18.5046C42.854 18.5046 45.1758 16.1829 45.1758 13.3289C45.1758 10.4749 42.854 8.15308 40 8.15308C37.146 8.15308 34.8242 10.4749 34.8242 13.3289C34.8242 16.1829 37.146 18.5046 40 18.5046ZM40 11.2781C41.1304 11.2781 42.0508 12.1979 42.0508 13.3289C42.0508 14.4598 41.1304 15.3796 40 15.3796C38.869 15.3796 37.9492 14.4598 37.9492 13.3289C37.9492 12.1979 38.869 11.2781 40 11.2781Z" fill="black"/>
<path d="M40 30.2234C37.146 30.2234 34.8242 32.5452 34.8242 35.3992C34.8242 38.2532 37.146 40.575 40 40.575C42.854 40.575 45.1758 38.2532 45.1758 35.3992C45.1758 32.5452 42.854 30.2234 40 30.2234ZM40 37.45C38.869 37.45 37.9492 36.5295 37.9492 35.3992C37.9492 34.2682 38.869 33.3484 40 33.3484C41.1304 33.3484 42.0508 34.2682 42.0508 35.3992C42.0508 36.5295 41.131 37.45 40 37.45Z" fill="black"/>
<path d="M40 23.8757C33.6456 23.8757 28.4766 29.0448 28.4766 35.3992C28.4766 41.7529 33.6456 46.9226 40 46.9226C46.3538 46.9226 51.5234 41.7529 51.5234 35.3992C51.5234 29.0448 46.3538 23.8757 40 23.8757ZM40 43.7976C35.3687 43.7976 31.6016 40.0299 31.6016 35.3992C31.6016 30.7678 35.3687 27.0007 40 27.0007C44.6307 27.0007 48.3984 30.7678 48.3984 35.3992C48.3984 40.0299 44.6307 43.7976 40 43.7976Z" fill="black"/>
<path d="M40 57.5598C37.3572 57.5598 35.2075 59.7101 35.2075 62.3529C35.2075 64.9951 37.3572 67.1454 40 67.1454C42.6422 67.1454 44.7925 64.9951 44.7925 62.3529C44.7925 59.7101 42.6422 57.5598 40 57.5598ZM40 64.0204C39.0802 64.0204 38.3325 63.2721 38.3325 62.3529C38.3325 61.4331 39.0802 60.6848 40 60.6848C40.9192 60.6848 41.6675 61.4331 41.6675 62.3529C41.6675 63.2721 40.9192 64.0204 40 64.0204Z" fill="black"/>
<path d="M40 51.8855C34.2285 51.8855 29.5331 56.5809 29.5331 62.3524C29.5331 68.1239 34.2285 72.8193 40 72.8193C45.7715 72.8193 50.4669 68.1239 50.4669 62.3524C50.4669 56.5809 45.7715 51.8855 40 51.8855ZM40 69.6943C35.9515 69.6943 32.6581 66.4009 32.6581 62.353C32.6581 58.3046 35.9515 55.0111 40 55.0111C44.0479 55.0111 47.3419 58.3046 47.3419 62.353C47.3419 66.4009 44.0485 69.6943 40 69.6943Z" fill="black"/>
<path d="M47.2059 9.20845C47.4939 9.71382 48.0219 9.99702 48.5645 9.99702C48.8257 9.99702 49.0912 9.93171 49.3347 9.79316C50.0849 9.36653 50.3479 8.41316 49.9219 7.66243L49.8963 7.61909C49.4666 6.8708 48.5108 6.61263 47.7631 7.04292C47.0148 7.47322 46.7573 8.42842 47.1869 9.1761L47.2059 9.20845Z" fill="black"/>
<path d="M8.78662 76.875H8.75C7.88696 76.875 7.1875 77.5745 7.1875 78.4375C7.1875 79.3005 7.88696 80 8.75 80H8.78662C9.64966 80 10.3491 79.3005 10.3491 78.4375C10.3491 77.5745 9.64966 76.875 8.78662 76.875Z" fill="black"/>
<path d="M66.7242 76.875H60.3125V1.5625C60.3125 0.699463 59.613 0 58.75 0H21.25C20.387 0 19.6875 0.699463 19.6875 1.5625V76.875H13.2758C12.4133 76.875 11.7133 77.5745 11.7133 78.4375C11.7133 79.3005 12.4133 80 13.2758 80H66.7236C67.5867 80 68.2861 79.3005 68.2861 78.4375C68.2867 77.5745 67.5867 76.875 66.7242 76.875ZM22.8125 76.875V3.125H57.1875V76.875H22.8125Z" fill="black"/>
<path d="M71.25 76.875H71.2134C70.3503 76.875 69.6509 77.5745 69.6509 78.4375C69.6509 79.3005 70.3503 80 71.2134 80H71.25C72.113 80 72.8125 79.3005 72.8125 78.4375C72.8125 77.5745 72.113 76.875 71.25 76.875Z" fill="black"/>
<path d="M14.2389 29.6374C13.2288 31.3867 12.6953 33.3789 12.6953 35.3991C12.6953 37.4194 13.2288 39.4116 14.2389 41.1608C14.5282 41.6619 15.0537 41.9427 15.5939 41.9427C15.8588 41.9427 16.1273 41.875 16.3733 41.7327C17.1204 41.3012 17.3767 40.346 16.9452 39.5983C16.2091 38.3233 15.8203 36.8713 15.8203 35.3991C15.8203 33.927 16.2091 32.4749 16.9452 31.1999C17.3767 30.4528 17.121 29.497 16.3733 29.0655C15.6256 28.634 14.6704 28.8903 14.2389 29.6374Z" fill="black"/>
<path d="M13.3069 47.8737C13.7067 47.8737 14.1064 47.7211 14.4116 47.4159C15.022 46.8062 15.022 45.8168 14.4116 45.2065C11.792 42.5868 10.3491 39.1042 10.3491 35.3993C10.3491 31.6945 11.792 28.2118 14.4116 25.5922C15.022 24.9818 15.022 23.9925 14.4116 23.3821C13.8013 22.7724 12.8125 22.7724 12.2021 23.3821C8.99231 26.5919 7.22412 30.8595 7.22412 35.3987C7.22412 39.9385 8.99231 44.2061 12.2021 47.4159C12.5073 47.7211 12.9071 47.8737 13.3069 47.8737Z" fill="black"/>
<path d="M64.2163 35.3991C64.2163 36.8713 63.8275 38.3233 63.0914 39.5983C62.6599 40.346 62.9162 41.3012 63.6633 41.7327C63.9093 41.875 64.1778 41.9427 64.4427 41.9427C64.9829 41.9427 65.5084 41.6619 65.7977 41.1608C66.8078 39.4116 67.3413 37.4194 67.3413 35.3991C67.3413 33.3789 66.8078 31.3867 65.7977 29.6374C65.3662 28.8903 64.411 28.634 63.6633 29.0655C62.9156 29.497 62.6599 30.4528 63.0914 31.1999C63.8275 32.4749 64.2163 33.927 64.2163 35.3991Z" fill="black"/>
<path d="M69.6875 35.3992C69.6875 39.104 68.2446 42.5867 65.6256 45.2063C65.0153 45.8167 65.0153 46.806 65.6256 47.4164C65.9302 47.7209 66.3306 47.8735 66.7303 47.8735C67.1301 47.8735 67.5299 47.7209 67.8351 47.4164C71.0449 44.2059 72.8125 39.9384 72.8125 35.3992C72.8125 30.86 71.0449 26.5924 67.8351 23.3826C67.2247 22.7722 66.236 22.7722 65.6256 23.3826C65.0153 23.9923 65.0153 24.9817 65.6256 25.592C68.2446 28.2117 69.6875 31.6943 69.6875 35.3992Z" fill="black"/>
</svg>
