<svg width="80" height="80" viewBox="0 0 80 80" fill="none" xmlns="http://www.w3.org/2000/svg">
<path fill-rule="evenodd" clip-rule="evenodd" d="M41.9888 52.0125C42.6401 52.7644 43.7875 53.3809 45.6448 52.3085C46.1008 52.0448 46.4334 51.7098 46.6574 51.3277C46.6568 51.3277 46.6568 51.3271 46.6568 51.3271C47.7927 49.3867 46.1398 46.2361 43.7698 45.0984C43.7698 45.0978 43.7698 45.0978 43.7698 45.0972C43.2071 44.8274 42.6041 44.6711 41.9888 44.6711C40.8938 44.6711 39.8391 45.1668 38.9798 45.915C37.4862 47.2163 36.5872 49.2805 37.0993 50.8339C37.0993 50.8339 37.0987 50.8345 37.0987 50.8351C37.2928 51.4229 37.6895 51.9368 38.3334 52.3085C40.1907 53.3809 41.3382 52.7644 41.9888 52.0125Z" fill="#99C454"/>
<path fill-rule="evenodd" clip-rule="evenodd" d="M31.985 64.8421C34.4581 62.3684 30.2406 58.1002 26.9636 58.9785C23.6866 59.8568 22.168 65.6618 25.5463 66.567C27.4348 67.073 28.2996 66.26 28.6958 65.444C29.4465 65.9524 30.6025 66.2246 31.985 64.8421Z" fill="#FFBD50"/>
<path fill-rule="evenodd" clip-rule="evenodd" d="M54.9098 57.0523C51.8586 56.235 47.9304 60.2097 50.2338 62.5125C51.5211 63.8004 52.5971 63.5471 53.296 63.0734C53.6652 63.8333 54.4709 64.5908 56.2293 64.1196C59.3757 63.2767 57.9615 57.8702 54.9098 57.0523Z" fill="#F13D7C"/>
<path fill-rule="evenodd" clip-rule="evenodd" d="M49.2193 3.15552C40.0658 4.78272 33.0291 13.7195 33.0291 24.4441C33.0291 33.4462 37.9863 41.1873 44.992 44.4051C54.1448 42.7785 61.1816 33.8411 61.1816 23.1165C61.1816 14.115 56.2243 6.3733 49.2193 3.15552Z" fill="#99C454"/>
<path fill-rule="evenodd" clip-rule="evenodd" d="M22.7961 23.1165C22.7961 22.7374 22.8065 22.3615 22.8242 21.9873C15.0623 25.5414 10.9412 35.0904 13.49 44.604C15.4395 51.8794 20.7776 57.2206 26.9819 58.9729C31.4118 57.7803 34.9293 54.7792 37.0991 50.8332C36.587 49.2805 37.4861 47.2163 38.9796 45.915C39.0932 45.4347 39.1902 44.9476 39.2689 44.4544C29.9574 42.9707 22.7961 33.9832 22.7961 23.1165Z" fill="#FFBD50"/>
<path fill-rule="evenodd" clip-rule="evenodd" d="M67.1451 22.7473C67.1683 23.1929 67.1817 23.6415 67.1817 24.0938C67.1817 36.2618 52.7322 52.4447 51.506 54.5388C52.0053 55.2188 52.5521 55.8578 53.1399 56.4535C53.7106 56.6873 54.3008 56.8887 54.9099 57.0523C63.6032 59.3814 72.7707 53.3553 75.3867 43.5927C77.7109 34.919 74.0805 26.2147 67.1451 22.7473Z" fill="#F13D7C"/>
<path d="M28.4615 20.9815C28.5768 21.0077 28.6928 21.0199 28.8063 21.0199C29.5204 21.0199 30.165 20.5268 30.3291 19.8011C30.8791 17.3603 31.9588 15.1331 33.4511 13.3588C34.0065 12.699 33.9217 11.7133 33.2613 11.1578C32.6009 10.6024 31.6158 10.6873 31.0597 11.3477C29.2476 13.5022 27.9402 16.1878 27.281 19.1138C27.0912 19.9555 27.6198 20.7917 28.4615 20.9815Z" fill="black"/>
<path d="M36.0551 10.7557C36.3084 10.7557 36.5647 10.6947 36.8021 10.5653L36.8516 10.5378C37.6017 10.1118 37.8648 9.15783 37.4387 8.4077C37.0121 7.65697 36.0593 7.39452 35.3092 7.82054C35.3086 7.82054 35.3019 7.8242 35.3013 7.82481C34.5445 8.23802 34.268 9.18468 34.6806 9.94213C34.9638 10.4615 35.5009 10.7557 36.0551 10.7557Z" fill="black"/>
<path d="M11.8797 32.5984C11.0929 32.2437 10.1676 32.5941 9.81302 33.3808C8.77847 35.677 8.28836 38.3039 8.39517 40.9785C8.42874 41.819 9.12088 42.4782 9.95523 42.4782C9.97599 42.4782 9.99735 42.4782 10.0187 42.4769C10.8811 42.4428 11.5519 41.7158 11.5171 40.8534C11.4292 38.661 11.8254 36.5211 12.6622 34.6644C13.0162 33.8777 12.6658 32.953 11.8797 32.5984Z" fill="black"/>
<path d="M12.8401 29.0364V29.037C12.2145 29.6315 12.1888 30.6197 12.7833 31.2453C13.0903 31.5688 13.5029 31.7317 13.9161 31.7317C14.3025 31.7317 14.6901 31.5889 14.9922 31.3021L15.0373 31.2581C15.6508 30.6514 15.6562 29.6614 15.0489 29.0486C14.4416 28.4352 13.4529 28.4297 12.8401 29.0364Z" fill="black"/>
<path d="M75.5213 29.1572C73.2398 24.618 69.4281 21.4332 64.787 20.1899C64.0436 19.9909 63.2867 19.845 62.5238 19.7529C61.0565 8.595 52.4078 0 41.9891 0C31.8267 0 23.3482 8.1763 21.5752 18.9326C19.8253 18.8624 18.0748 19.0546 16.3865 19.5069C11.4353 20.8332 7.36795 24.2317 4.93325 29.076C2.52967 33.8594 2.00843 39.4899 3.46596 44.9306C4.71779 49.601 7.27029 53.6312 10.8482 56.5859C14.2979 59.4344 18.4898 61.0232 22.6744 61.0757C22.2862 61.9698 22.0793 62.9214 22.0793 63.807C22.0787 65.9341 23.2524 67.5698 25.1421 68.0758C25.6615 68.215 26.1607 68.2858 26.6271 68.2858C27.0195 68.2858 27.3937 68.2333 27.7452 68.1344C27.8887 69.1397 28.0101 70.3622 28.1297 71.5634C28.2775 73.0502 28.4447 74.7348 28.6827 76.4499C28.7914 77.2317 29.4609 77.7975 30.2281 77.7975C30.2996 77.7975 30.3722 77.7927 30.4448 77.7829C31.2993 77.6645 31.8962 76.8753 31.7778 76.0208C31.5483 74.3655 31.3842 72.7127 31.2389 71.2545C31.0869 69.7268 30.9563 68.4152 30.7848 67.3239C31.5874 67.1365 32.3601 66.6757 33.0895 65.9463C34.3187 64.717 34.6245 63.0483 33.9287 61.368C33.4868 60.3017 32.6976 59.3563 31.7327 58.6459C33.886 57.3659 35.7689 55.6191 37.2777 53.4878C37.3668 53.5476 37.4572 53.6068 37.5524 53.6611C38.4551 54.1829 39.3389 54.4466 40.1794 54.4466C40.2495 54.4466 40.3197 54.4442 40.3893 54.4405C40.2605 55.5593 40.0347 56.9369 39.8009 58.3584C38.7536 64.7378 37.3186 73.4738 40.6359 79.2184C40.9252 79.7202 41.4501 79.9997 41.9903 79.9997C42.2552 79.9997 42.5237 79.9326 42.7697 79.7903C43.5174 79.3594 43.7731 78.4036 43.3416 77.6565C40.5834 72.8787 41.9134 64.7787 42.8844 58.865C43.1683 57.1377 43.4087 55.6667 43.532 54.4375C43.6199 54.4436 43.709 54.4466 43.7988 54.4466C44.6386 54.4466 45.523 54.1823 46.4257 53.6611C46.4532 53.6452 46.4782 53.6275 46.5051 53.611C47.6226 54.8562 48.8891 55.9102 50.2771 56.7525C49.4201 57.4148 48.7225 58.2735 48.3239 59.2367C47.6684 60.8199 47.9693 62.4575 49.129 63.6172C49.7668 64.255 50.4406 64.6774 51.1413 64.8806C49.5758 71.1715 50.7275 75.6467 50.7836 75.8554C50.9698 76.5536 51.6015 77.0145 52.2918 77.0145C52.4249 77.0145 52.561 76.9974 52.6959 76.9613C53.5296 76.7386 54.0246 75.8816 53.8018 75.0485C53.7902 75.0058 52.8051 71.174 54.1607 65.6845C54.4952 65.7772 54.8504 65.8273 55.2234 65.8273C55.6665 65.8273 56.1413 65.7601 56.6339 65.6283C58.4424 65.1437 59.566 63.5806 59.566 61.5487C59.566 60.7577 59.3909 59.9111 59.0619 59.1067C62.9309 59.0206 66.7969 57.5399 69.9854 54.9068C73.335 52.1407 75.7239 48.3687 76.8952 43.9974C78.2599 38.9052 77.7717 33.6348 75.5213 29.1572ZM41.9891 3.1244C51.1792 3.1244 58.7482 11.1402 59.5483 21.3294C59.5715 21.6285 59.5892 21.927 59.6014 22.2236C59.6014 22.2358 59.602 22.2486 59.6026 22.2608C59.6075 22.3969 59.6118 22.5324 59.6149 22.6673C59.6155 22.7216 59.6155 22.776 59.6167 22.8303C59.6179 22.9261 59.6191 23.0219 59.6191 23.1165C59.6191 33.0909 52.9779 41.6115 44.3481 42.9292C44.3456 42.9292 44.3432 42.9299 44.3408 42.9299C44.2126 42.9494 44.0838 42.9671 43.9556 42.9836C43.9404 42.9854 43.9251 42.9872 43.9098 42.9891C43.7847 43.0049 43.659 43.0184 43.5333 43.0306C43.0242 43.0812 42.5097 43.1087 41.9891 43.1087C41.1272 43.1087 40.2801 43.0367 39.4512 42.9006C39.3609 42.8859 39.2705 42.87 39.1808 42.8536C39.1265 42.8438 39.0728 42.8334 39.0191 42.823C38.9379 42.8078 38.8573 42.7919 38.7768 42.7748C38.7139 42.7614 38.651 42.748 38.5888 42.7339C38.5155 42.7174 38.4429 42.7016 38.3703 42.6845C38.3007 42.668 38.2311 42.6503 38.1615 42.6326C38.0956 42.6161 38.0291 42.5997 37.9632 42.582C37.8881 42.5618 37.8136 42.5411 37.7392 42.5197C37.6781 42.5026 37.6171 42.4861 37.5561 42.4684C37.4773 42.4446 37.3992 42.4202 37.3205 42.3958C37.2643 42.3781 37.2075 42.3616 37.1508 42.3433C37.0727 42.3177 36.9958 42.2908 36.9182 42.2646C36.7681 42.2133 36.6192 42.1602 36.4708 42.1047C36.4403 42.0931 36.4092 42.0821 36.3781 42.0705C36.2749 42.0308 36.1724 41.9893 36.0698 41.9478C36.046 41.9386 36.0222 41.9295 35.9984 41.9197C35.888 41.8739 35.7787 41.8269 35.6695 41.7793C35.6554 41.7732 35.642 41.7671 35.6286 41.7616C35.5083 41.7091 35.3899 41.6548 35.2715 41.5993C35.2709 41.5987 35.2703 41.5987 35.2697 41.5981C29.3151 38.7971 25.0475 32.3958 24.4347 24.9647C24.4341 24.9562 24.4334 24.9482 24.4322 24.9397C24.4212 24.803 24.4115 24.6662 24.4029 24.5295C24.4005 24.4874 24.398 24.4453 24.3962 24.4032C24.3895 24.2933 24.384 24.1834 24.3791 24.0736C24.3761 23.9955 24.3736 23.9167 24.3712 23.838C24.3687 23.7592 24.3657 23.6805 24.3639 23.6018C24.3608 23.4406 24.3584 23.2789 24.3584 23.1165C24.3584 22.9292 24.3614 22.7412 24.3657 22.552C24.3663 22.5239 24.3681 22.4964 24.3687 22.4683C24.3736 22.3023 24.3797 22.1357 24.3883 21.9691C24.3889 21.9483 24.3907 21.9282 24.3913 21.9074C24.4011 21.7323 24.4121 21.5577 24.4255 21.3825C24.4267 21.366 24.428 21.3496 24.4292 21.3331C24.4432 21.1585 24.4591 20.9834 24.4768 20.8088C25.4887 10.8686 32.9558 3.1244 41.9891 3.1244ZM30.88 63.7374C30.5254 64.092 30.1879 64.2953 29.9547 64.2953C29.8424 64.2953 29.7136 64.2465 29.572 64.1506C29.5616 64.1439 29.5507 64.1384 29.5409 64.1317C29.511 64.1128 29.4817 64.0951 29.4512 64.078C29.4322 64.0676 29.4139 64.0585 29.395 64.0487C29.3663 64.0347 29.3376 64.0212 29.3083 64.0084C29.2882 63.9999 29.2675 63.9913 29.2467 63.9834C29.2174 63.9724 29.1881 63.9626 29.1582 63.9535C29.1374 63.9474 29.1167 63.9407 29.0953 63.9352C29.0636 63.9266 29.0312 63.9199 28.9989 63.9132C28.9794 63.9095 28.9604 63.9053 28.9409 63.9016C28.9018 63.8955 28.8628 63.8918 28.8231 63.8882C28.8103 63.8876 28.7975 63.8851 28.7847 63.8845C28.6766 63.8784 28.5674 63.8833 28.4587 63.9004C28.4532 63.901 28.4471 63.9028 28.4416 63.9034C28.3946 63.9114 28.3476 63.9211 28.3006 63.9333C28.2976 63.934 28.2945 63.934 28.2915 63.9352C28.2781 63.9388 28.2646 63.9443 28.2512 63.9486C28.2164 63.959 28.1816 63.9694 28.1474 63.9822C28.1255 63.9907 28.1041 64.0005 28.0828 64.0096C28.0614 64.0182 28.0406 64.0261 28.0199 64.0359C28.0126 64.0396 28.0058 64.0438 27.9985 64.0475C27.9766 64.0585 27.9558 64.0701 27.9344 64.0823C27.9076 64.0975 27.8801 64.1128 27.8545 64.1293C27.8362 64.1409 27.8185 64.1531 27.8014 64.1659C27.7733 64.1848 27.7464 64.205 27.7202 64.2257C27.7049 64.2379 27.6903 64.2501 27.6763 64.2629C27.6494 64.2861 27.6238 64.3093 27.5987 64.3337C27.5853 64.3472 27.5725 64.36 27.5597 64.374C27.5359 64.3997 27.5121 64.4259 27.4901 64.4534C27.4779 64.468 27.4663 64.4827 27.4547 64.4973C27.4333 64.5254 27.4138 64.5541 27.3943 64.5834C27.3839 64.5992 27.3729 64.6151 27.3631 64.6316C27.3442 64.6621 27.3271 64.6932 27.3107 64.7256C27.3046 64.7378 27.2966 64.7494 27.2905 64.7622C27.144 65.0643 26.9823 65.162 26.6271 65.162C26.4342 65.162 26.2065 65.1272 25.9508 65.0582C25.7463 65.0039 25.2037 64.8586 25.2037 63.8076C25.2037 62.5143 26.129 60.8199 27.368 60.4879C27.5261 60.4458 27.6964 60.4238 27.8746 60.4238C29.0898 60.4238 30.5699 61.4242 31.0424 62.5643C31.303 63.1942 31.1064 63.511 30.88 63.7374ZM26.5587 57.4697C25.36 57.7907 24.1252 57.9537 22.8874 57.9537C15.4118 57.9537 8.66617 52.2658 6.48416 44.1213C5.225 39.4221 5.66567 34.5772 7.72501 30.4792C9.75382 26.4424 13.1169 23.6176 17.1953 22.5251C18.3934 22.2041 19.6287 22.0411 20.8659 22.0411C20.9959 22.0411 21.1259 22.0429 21.2559 22.0466C21.2535 22.1027 21.2529 22.1589 21.2511 22.2157C21.2468 22.331 21.2425 22.4464 21.2401 22.5617C21.2358 22.7473 21.2334 22.9322 21.2334 23.1165C21.2334 23.3027 21.2358 23.4882 21.2401 23.6738C21.2413 23.7483 21.2443 23.8227 21.2468 23.8978C21.2498 24.0058 21.2529 24.1139 21.2578 24.2213C21.2614 24.3177 21.2669 24.4142 21.2724 24.51C21.2767 24.5924 21.281 24.6748 21.2865 24.7572C21.2932 24.8689 21.3011 24.9806 21.3097 25.0923C21.3145 25.1545 21.3194 25.2174 21.3249 25.2796C21.3353 25.4066 21.3469 25.5335 21.3591 25.6593C21.3634 25.6996 21.3676 25.7398 21.3719 25.7801C21.3866 25.926 21.403 26.0707 21.4201 26.2153C21.4214 26.2245 21.4226 26.233 21.4238 26.2416C21.5477 27.2602 21.7314 28.2576 21.9713 29.2298C21.9737 29.2402 21.9762 29.25 21.9786 29.2604C22.014 29.4026 22.05 29.5436 22.0879 29.6846C22.0976 29.7212 22.1074 29.7584 22.1178 29.7956C22.1501 29.9153 22.1831 30.0343 22.2173 30.1527C22.2362 30.218 22.2551 30.2833 22.2746 30.3486C22.3021 30.4414 22.3296 30.5342 22.3582 30.6257C22.3906 30.7307 22.4236 30.8345 22.4571 30.9388C22.4748 30.9925 22.4919 31.0469 22.5096 31.1006C23.3696 33.7056 24.6495 36.1366 26.3078 38.2643C28.5082 41.0878 31.27 43.2497 34.3383 44.6053C34.3834 44.6254 34.428 44.6443 34.4732 44.6639C34.688 44.7566 34.9035 44.8458 35.1207 44.9306C35.2141 44.9672 35.3069 45.0038 35.4009 45.0386C35.5102 45.0795 35.62 45.1192 35.7305 45.1583C35.8764 45.2095 36.0235 45.259 36.1706 45.3072C36.2774 45.342 36.3842 45.3761 36.4922 45.4085C36.654 45.4579 36.8169 45.5055 36.9805 45.5507C37.0244 45.5629 37.0678 45.5776 37.1117 45.5892C37.1087 45.5928 37.1062 45.5959 37.1038 45.5989C37.0427 45.6722 36.9829 45.7454 36.9243 45.8205C36.8676 45.8931 36.8126 45.967 36.7583 46.0408C36.7577 46.0414 36.7577 46.0414 36.7577 46.042C36.4879 46.4107 36.2554 46.7971 36.0625 47.1926C36.0497 47.2176 36.0381 47.2432 36.0259 47.2682C35.9997 47.3244 35.9722 47.3806 35.9478 47.4373C35.7995 47.7687 35.6786 48.1044 35.5895 48.4389C35.4577 48.929 35.3972 49.4094 35.3972 49.872C35.3972 49.9092 35.396 49.9471 35.3966 49.9837C35.3972 50.0283 35.4003 50.0722 35.4021 50.1162C35.4064 50.2083 35.4125 50.3005 35.4216 50.3914C35.4229 50.4024 35.4241 50.4134 35.4253 50.425C35.4314 50.4775 35.4351 50.53 35.4424 50.5819C33.3818 54.0456 30.2465 56.4815 26.5587 57.4697ZM43.7988 51.3222C43.6297 51.3222 43.4234 51.2832 43.1695 50.9896C43.1628 50.9816 43.1548 50.9749 43.1475 50.967C43.1219 50.9389 43.0962 50.9114 43.0688 50.8852C43.056 50.873 43.0425 50.8614 43.0297 50.8498C43.0029 50.8254 42.9748 50.8022 42.9461 50.7796C42.9321 50.7692 42.918 50.7583 42.904 50.7479C42.8735 50.7259 42.8429 50.7058 42.8112 50.6862C42.7978 50.6777 42.7843 50.6691 42.7709 50.6612C42.7349 50.6405 42.6977 50.6215 42.6598 50.6032C42.6501 50.5983 42.6403 50.5935 42.6305 50.5886C42.434 50.5001 42.2186 50.4512 41.9952 50.4506C41.9933 50.4506 41.9909 50.4506 41.9884 50.4506C41.9775 50.4506 41.9665 50.4519 41.9555 50.4519C41.9158 50.4531 41.8761 50.4543 41.8365 50.4586C41.8133 50.461 41.7907 50.4647 41.7681 50.4677C41.7455 50.4714 41.7229 50.4732 41.6997 50.4775C41.6924 50.4787 41.6845 50.4811 41.6772 50.483C41.6528 50.4879 41.6283 50.494 41.6045 50.5001C41.5752 50.508 41.5453 50.5153 41.5166 50.5245C41.4959 50.5312 41.4751 50.5391 41.455 50.5465C41.4233 50.5581 41.3921 50.5697 41.3616 50.5831C41.3439 50.591 41.3268 50.5996 41.3091 50.6075C41.2774 50.6228 41.2463 50.6392 41.2157 50.6563C41.1999 50.6655 41.184 50.6752 41.1681 50.685C41.1382 50.7033 41.1089 50.7229 41.0796 50.7436C41.065 50.7546 41.0497 50.7656 41.0351 50.7772C41.007 50.7985 40.9801 50.8211 40.9539 50.8443C40.9399 50.8571 40.9252 50.8693 40.9112 50.8828C40.8855 50.9078 40.8611 50.934 40.8367 50.9603C40.8269 50.9707 40.8166 50.9798 40.8074 50.9908C40.5541 51.2832 40.3478 51.3228 40.1794 51.3228C39.9834 51.3228 39.6398 51.2587 39.1143 50.956C38.9806 50.8785 38.7169 50.7241 38.5882 50.364C38.5857 50.3572 38.5845 50.3511 38.5827 50.3444C38.5131 50.1326 38.4997 49.8848 38.5338 49.6181C38.5363 49.5998 38.5393 49.5803 38.5424 49.5613C38.5491 49.5186 38.5564 49.4747 38.5656 49.4307C38.5729 49.3941 38.5827 49.3563 38.5918 49.3178C38.6016 49.2781 38.6107 49.2391 38.6223 49.1994C38.6248 49.189 38.6284 49.1787 38.6309 49.1683C38.8451 48.4529 39.3426 47.6711 40.006 47.0931C40.0359 47.0668 40.0646 47.04 40.0927 47.0113C40.6573 46.5431 41.3195 46.2337 41.9891 46.2337C42.34 46.2337 42.6885 46.3191 43.023 46.4681C43.0468 46.4809 43.0694 46.4955 43.0938 46.5071C43.7841 46.8379 44.4231 47.4373 44.8657 48.1319C44.8693 48.1374 44.8736 48.1435 44.8773 48.1496C44.9139 48.2076 44.9487 48.2662 44.9822 48.3248C44.9889 48.337 44.9957 48.3486 45.0018 48.3608C45.0292 48.409 45.0549 48.4578 45.0799 48.5073C45.0866 48.5207 45.0939 48.5335 45.1006 48.5469C45.1306 48.6074 45.1586 48.6678 45.1855 48.7288C45.1873 48.7325 45.1891 48.7368 45.191 48.741C45.2178 48.8039 45.2435 48.8668 45.2673 48.9296C45.2679 48.9321 45.2691 48.9345 45.2697 48.9376C45.2947 49.0041 45.3173 49.0712 45.3381 49.1384C45.3442 49.1585 45.3509 49.1799 45.357 49.2018C45.357 49.2025 45.3576 49.2037 45.3576 49.2043C45.3637 49.2263 45.3698 49.2488 45.3759 49.2726C45.3887 49.3215 45.3985 49.3679 45.4089 49.4136C45.4791 49.7518 45.509 50.1961 45.3088 50.5379C45.3063 50.5416 45.3051 50.5452 45.3027 50.5495C45.1647 50.7802 44.9719 50.8931 44.8638 50.956C44.3377 51.2587 43.9941 51.3222 43.7988 51.3222ZM55.8252 62.6101C55.5957 62.6717 55.3937 62.7029 55.2234 62.7029C54.9328 62.7029 54.8205 62.6357 54.7015 62.3916C54.7009 62.3898 54.7003 62.3885 54.6997 62.3873C54.6759 62.3391 54.6496 62.2921 54.6216 62.2463C54.6167 62.2384 54.6106 62.2311 54.6057 62.2237C54.5819 62.1859 54.5562 62.1499 54.5288 62.1145C54.5196 62.1023 54.5092 62.0913 54.4995 62.0791C54.4751 62.0498 54.45 62.0205 54.4232 61.9924C54.4116 61.9808 54.3994 61.9692 54.3878 61.9576C54.3615 61.932 54.3341 61.9064 54.306 61.8826C54.2926 61.871 54.2785 61.8606 54.2645 61.8496C54.2364 61.8276 54.2083 61.8057 54.1784 61.7855C54.1626 61.7745 54.1461 61.7642 54.1296 61.7538C54.1015 61.7361 54.0722 61.719 54.0423 61.7025C54.0234 61.6921 54.0039 61.6824 53.9843 61.6726C53.9563 61.6592 53.9282 61.6464 53.8989 61.6341C53.8763 61.6244 53.8537 61.6152 53.8311 61.6073C53.8195 61.603 53.8092 61.5975 53.7976 61.5939C53.7793 61.5878 53.7616 61.5835 53.7433 61.5786C53.7292 61.5743 53.7152 61.5682 53.7005 61.5646C53.6932 61.5621 53.6859 61.5621 53.6786 61.5603C53.6212 61.5456 53.5638 61.5334 53.5058 61.5255C53.5034 61.5255 53.5009 61.5243 53.4979 61.5243C53.4338 61.5157 53.3703 61.5121 53.3062 61.5115C53.3032 61.5115 53.2995 61.5109 53.2965 61.5109C53.2904 61.5109 53.2843 61.5121 53.2782 61.5127C53.2129 61.5133 53.1475 61.5182 53.0835 61.5273C53.0749 61.5279 53.0658 61.5292 53.0572 61.5304C52.9882 61.5408 52.9205 61.5566 52.8534 61.5762C52.8418 61.5798 52.8302 61.5841 52.8186 61.5878C52.7581 61.6073 52.6989 61.6299 52.6416 61.6567C52.6336 61.6604 52.6257 61.6634 52.6178 61.6671C52.5549 61.697 52.4951 61.7324 52.4371 61.7703C52.4316 61.7739 52.4255 61.7764 52.42 61.78C52.3065 61.8569 52.2064 61.8966 52.124 61.8966C51.9378 61.8966 51.6442 61.7135 51.3378 61.4083C51.2066 61.2765 50.9619 61.0317 51.2103 60.4324C51.6357 59.4064 52.9681 58.5055 54.0612 58.5055C54.2181 58.5055 54.367 58.5244 54.5056 58.5616C55.6134 58.8583 56.441 60.3835 56.441 61.5493C56.441 62.4453 56.0095 62.5613 55.8252 62.6101ZM73.877 43.1886C71.8573 50.7265 65.6189 55.9902 58.7054 55.9902C57.5622 55.9902 56.4215 55.8401 55.3143 55.5434C52.6257 54.8232 50.263 53.2839 48.4356 51.0701C48.5522 50.6246 48.5998 50.1509 48.5784 49.6621C48.5766 49.6193 48.5717 49.5766 48.5687 49.5339C48.5638 49.4539 48.5583 49.374 48.5491 49.2934C48.5424 49.2305 48.5321 49.1671 48.5229 49.1042C48.5137 49.0413 48.5046 48.9791 48.493 48.9162C48.4808 48.8478 48.4661 48.7789 48.4509 48.7105C48.4374 48.6501 48.424 48.5891 48.4088 48.528C48.4014 48.4987 48.3959 48.4694 48.388 48.4395C48.3691 48.3693 48.3483 48.2985 48.327 48.2283C48.3264 48.2271 48.3264 48.2259 48.3258 48.2247C48.3258 48.2241 48.3258 48.2241 48.3251 48.2234C48.2922 48.1154 48.2562 48.008 48.2171 47.9006C48.2055 47.8688 48.1933 47.8383 48.1817 47.8066C48.1567 47.7425 48.1317 47.6784 48.1048 47.6143C48.0841 47.5637 48.0633 47.513 48.0407 47.4623C48.0358 47.4507 48.0303 47.4398 48.0248 47.4282C47.7319 46.769 47.3388 46.1458 46.8682 45.5898C46.9293 45.5733 46.9897 45.5538 47.0513 45.5367C47.1478 45.5092 47.2442 45.4811 47.3406 45.4524C51.1456 44.3263 54.6014 42.0113 57.3065 38.7178C59.7357 35.7606 61.4081 32.1925 62.207 28.3528C62.2144 28.3174 62.2211 28.2807 62.229 28.2447C62.2571 28.1062 62.2845 27.967 62.3102 27.8279C62.323 27.7595 62.3352 27.6905 62.3474 27.6222C62.3663 27.5141 62.3853 27.4061 62.4036 27.2975C62.4176 27.2114 62.431 27.1247 62.4445 27.0381C62.4585 26.9459 62.4725 26.8537 62.4854 26.7616C62.4994 26.6651 62.5122 26.5681 62.525 26.4704C62.536 26.3868 62.5464 26.3038 62.5568 26.2202C62.569 26.117 62.5812 26.0139 62.5922 25.9107C62.6007 25.8314 62.6093 25.7514 62.6172 25.6721C62.6276 25.5659 62.6379 25.4597 62.6471 25.3529C62.6538 25.2748 62.6599 25.1966 62.666 25.1179C62.674 25.0105 62.6825 24.903 62.6892 24.795C62.6947 24.7157 62.6984 24.6363 62.7026 24.5576C62.7087 24.4496 62.7148 24.3427 62.7197 24.2347C62.7234 24.1535 62.7252 24.0724 62.7283 23.9912C62.7319 23.8844 62.7356 23.7782 62.738 23.6707C62.7399 23.5896 62.7399 23.5078 62.7411 23.426C62.7423 23.3228 62.7441 23.2203 62.7441 23.1172C62.7441 23.1037 62.7441 23.0897 62.7441 23.0763C62.7441 23.0311 62.7435 22.9859 62.7435 22.9408C63.1592 23.0097 63.5712 23.0995 63.9789 23.2087C67.7466 24.2182 70.8545 26.8293 72.7295 30.561C74.6357 34.3525 75.0428 38.8374 73.877 43.1886Z" fill="black"/>
</svg>
