<svg width="80" height="80" viewBox="0 0 80 80" fill="none" xmlns="http://www.w3.org/2000/svg">
<path fill-rule="evenodd" clip-rule="evenodd" d="M48.808 27.6587L55.9381 22.5519L52.9639 8.41064L52.7716 7.49634L44.5599 1.57227C47.8528 4.23889 46.5063 14.3079 44.2749 22.627L48.808 27.6587Z" fill="#B1D07F"/>
<path d="M33.5209 6.78906L32.5406 7.49646L32.3484 8.41077L29.3741 22.552L33.2755 25.3462L35.7255 22.6271C34.2844 17.256 33.2133 11.1561 33.5209 6.78906Z" fill="#B1D07F"/>
<path d="M37.0477 27.0562L36.5045 27.6586L32.7161 31.8645L40 45.4851V33.9C39.184 32.7599 38.0988 30.2318 37.0477 27.0562Z" fill="#B1D07F"/>
<path fill-rule="evenodd" clip-rule="evenodd" d="M44.2749 22.627C42.8925 27.7826 41.1694 32.2662 40 33.9001V55.4193L52.597 31.8646L48.808 27.6587L44.2749 22.627Z" fill="#B1D07F"/>
<path fill-rule="evenodd" clip-rule="evenodd" d="M52.597 31.8646L40 55.4193V78.4375L65.174 78.4369L64.2938 64.7797L63.9172 58.9368L65.8075 13.8739L52.9639 8.41064L55.9381 22.5519L48.808 27.6587L52.597 31.8646Z" fill="#99C454"/>
<path fill-rule="evenodd" clip-rule="evenodd" d="M68.2401 58.3105L74.3748 48.255L69.4852 28.6328L68.2401 58.3105Z" fill="#B1D07F"/>
<path fill-rule="evenodd" clip-rule="evenodd" d="M31.1919 27.6584L24.8943 23.1479L26.3951 58.9371L26.0186 64.7794L25.1384 78.4373H39.9999V55.4191L27.4034 31.8644L31.1919 27.6584Z" fill="#99C454"/>
<path fill-rule="evenodd" clip-rule="evenodd" d="M24.5057 13.8737L24.7352 19.351L26.0231 13.2285L24.5057 13.8737Z" fill="#76C8D6"/>
<path fill-rule="evenodd" clip-rule="evenodd" d="M15.9991 56.9354L14.9243 31.3159L10.7031 48.255L15.9991 56.9354Z" fill="#B1D07F"/>
<path fill-rule="evenodd" clip-rule="evenodd" d="M42.6172 28.0448C43.1867 26.4115 43.7549 24.5664 44.2749 22.6267C45.5725 17.7885 46.5705 12.3594 46.5314 8.13818H38.7037C38.664 12.3594 39.6619 17.7885 40.9595 22.6267C41.4801 24.567 42.0484 26.4115 42.6172 28.0448Z" fill="#B1D07F"/>
<path fill-rule="evenodd" clip-rule="evenodd" d="M44.5602 1.57214C43.8809 1.57214 43.2931 1.57031 42.6565 1.56787C42.0199 1.57031 41.4321 1.57214 40.7528 1.57214C39.3752 2.68848 38.8101 5.10059 38.782 8.13831H46.5316C46.5029 5.10059 45.9377 2.68787 44.5602 1.57214Z" fill="#99C454"/>
<path d="M75.8913 47.8772L67.3238 13.4961C67.3226 13.4924 67.3214 13.4894 67.3208 13.4857C67.3086 13.4393 67.2951 13.3929 67.2787 13.3484C67.2756 13.3398 67.2719 13.3313 67.2689 13.3228C67.2555 13.288 67.2414 13.2538 67.2262 13.2202C67.2188 13.2043 67.2109 13.1885 67.2024 13.1726C67.1895 13.1464 67.1755 13.1207 67.1609 13.0957C67.1523 13.0798 67.1432 13.064 67.134 13.0487C67.1114 13.0127 67.0876 12.9773 67.062 12.9425C67.0534 12.9309 67.0437 12.9199 67.0345 12.9083C67.015 12.8839 66.9954 12.8595 66.9741 12.8357C66.9631 12.8229 66.9515 12.8107 66.9393 12.7985C66.9185 12.7759 66.896 12.7545 66.874 12.7332C66.863 12.7234 66.8526 12.713 66.8416 12.7032C66.8099 12.6752 66.7769 12.6483 66.7428 12.6233C66.7403 12.6215 66.7385 12.6196 66.736 12.6178C66.6988 12.5897 66.6591 12.5641 66.6189 12.5391C66.6103 12.5342 66.6018 12.5293 66.5932 12.525C66.5621 12.5067 66.5304 12.489 66.4974 12.4731C66.4846 12.467 66.4718 12.4609 66.459 12.4548C66.4455 12.4487 66.4327 12.442 66.4193 12.4365L54.3258 7.29187L54.3007 7.17468C54.2208 6.79382 54.0017 6.4563 53.6861 6.22864L45.4744 0.305176C45.469 0.301514 45.4635 0.298462 45.458 0.2948C45.4293 0.274658 45.4 0.256348 45.3707 0.238037C45.3573 0.230102 45.3444 0.221558 45.331 0.213623C45.2926 0.192261 45.2535 0.172119 45.2138 0.153809C45.1931 0.144043 45.1717 0.136108 45.1504 0.126953C45.1247 0.116577 45.0991 0.106201 45.0734 0.0970459C45.0496 0.0891112 45.0258 0.0823975 45.002 0.0750733C44.9801 0.0689697 44.9587 0.0622559 44.9367 0.0567627C44.9123 0.0506592 44.8879 0.0457764 44.8635 0.0408936C44.8415 0.0366211 44.8189 0.0323486 44.7957 0.0286866C44.7719 0.0250244 44.7487 0.0219727 44.7243 0.0195312C44.7005 0.0170898 44.6761 0.0152588 44.6517 0.0140381C44.6291 0.012207 44.6065 0.0109863 44.5839 0.0109863C44.576 0.0109863 44.5681 0.00976562 44.5601 0.00976562C43.8863 0.00976562 43.3034 0.00793456 42.6723 0.00549316C41.9246 0.00305175 41.1098 0 40.0002 0C38.8912 0 38.0764 0.00305175 37.3287 0.00549316C36.6976 0.00793456 36.1141 0.00976562 35.4403 0.00976562C35.4317 0.00976562 35.4238 0.0109863 35.4152 0.0109863C35.3939 0.0115967 35.3719 0.0128174 35.3505 0.0140381C35.3249 0.0152588 35.2999 0.0170898 35.2749 0.0201416C35.2517 0.022583 35.2285 0.0256347 35.2059 0.0286866C35.1821 0.0323486 35.1589 0.0366211 35.1357 0.0415039C35.1119 0.0463867 35.0881 0.0506592 35.0649 0.0567627C35.0417 0.0622559 35.0191 0.0689697 34.9965 0.0756836C34.9734 0.0830078 34.9508 0.0891112 34.9282 0.0970459C34.9007 0.106812 34.8745 0.117798 34.8476 0.128784C34.8281 0.136719 34.8086 0.144043 34.789 0.152588C34.7481 0.171509 34.7085 0.19165 34.6694 0.214233C34.656 0.221558 34.6432 0.230713 34.6297 0.238647C34.6004 0.256348 34.5711 0.274658 34.5431 0.2948C34.5376 0.298462 34.5315 0.301514 34.526 0.305786L26.3143 6.22925C25.9987 6.45691 25.7796 6.79443 25.6991 7.17529L25.6746 7.29187L13.5811 12.4359C13.5677 12.442 13.5549 12.4487 13.5409 12.4554C13.5286 12.4609 13.5164 12.4664 13.5042 12.4725C13.4707 12.489 13.4377 12.5067 13.4054 12.5256C13.398 12.5299 13.3901 12.5342 13.3828 12.5385C13.3419 12.5635 13.3016 12.5897 13.2638 12.6178C13.2631 12.6184 13.2631 12.6184 13.2625 12.619C13.2265 12.6459 13.1917 12.6746 13.1582 12.7039C13.1484 12.713 13.1386 12.7222 13.1289 12.7313C13.1051 12.7533 13.0825 12.7759 13.0599 12.7997C13.0489 12.8113 13.0379 12.8229 13.0275 12.8345C13.005 12.8595 12.9842 12.8845 12.9641 12.9108C12.9561 12.9211 12.947 12.9315 12.939 12.9419C12.9134 12.9767 12.889 13.0127 12.8664 13.0493C12.8573 13.064 12.8487 13.0792 12.8402 13.0945C12.8255 13.1201 12.8109 13.1464 12.7974 13.1726C12.7901 13.1885 12.7822 13.2037 12.7749 13.2196C12.759 13.2538 12.745 13.2886 12.7315 13.3234C12.7285 13.3319 12.7248 13.3398 12.7218 13.3484C12.7059 13.3936 12.6919 13.4393 12.6796 13.4857C12.679 13.4894 12.6778 13.493 12.6766 13.4967L4.10909 47.8772C4.00777 48.2831 4.07369 48.7122 4.29159 49.0686L14.1158 65.1727L13.2668 78.3368C13.2393 78.7677 13.3913 79.1913 13.6867 79.5062C13.9821 79.8212 14.3947 80 14.8263 80H39.9996C40.0002 80 65.1742 79.9994 65.1748 79.9994C65.6063 79.9994 66.0189 79.8212 66.3143 79.5062C66.6097 79.1907 66.7617 78.7677 66.7336 78.3368L65.8852 65.1721L75.7094 49.0686C75.9273 48.7122 75.9926 48.2831 75.8913 47.8772ZM54.1994 21.8756L49.034 25.575L46.0006 22.2076C46.3534 20.8368 46.6775 19.4427 46.9576 18.0664C47.9793 13.0383 48.3217 8.99841 47.986 5.97046L51.3674 8.40942L54.1994 21.8756ZM34.9978 25.769C36.1208 29.4647 37.3787 32.6569 38.4377 34.3671V49.184L29.2989 32.0947L34.9978 25.769ZM43.8949 17.4438C43.5659 19.0625 43.1838 20.6665 42.7736 22.2003C42.7669 22.2235 42.7602 22.2467 42.7547 22.2705C41.8783 25.5377 40.8773 28.4766 40.0002 30.5304C39.1237 28.4772 38.1228 25.5383 37.2457 22.2705C37.2402 22.2467 37.2335 22.2229 37.2268 22.1991C36.8166 20.6659 36.4345 19.0619 36.1056 17.4432C35.4738 14.3359 35.151 11.7737 35.0539 9.70093H44.9465C44.8494 11.7737 44.5266 14.3359 43.8949 17.4438ZM41.5627 49.184V34.3671C42.6217 32.6569 43.8796 29.4647 45.0033 25.769L50.7021 32.0953L41.5627 49.184ZM37.3397 3.13049C38.0843 3.12805 38.8955 3.125 40.0002 3.125C41.1049 3.125 41.9161 3.12805 42.6607 3.13049C43.0837 3.13232 43.4853 3.13354 43.9065 3.13416C44.3819 3.76648 44.7518 4.89014 44.9038 6.57593H35.0966C35.2486 4.89014 35.6185 3.76587 36.094 3.13416C36.5157 3.13354 36.9167 3.13232 37.3397 3.13049ZM32.0144 5.97046C31.6793 8.99841 32.0211 13.0383 33.0434 18.0664C33.323 19.4427 33.6471 20.8368 33.9998 22.2076L30.9664 25.575L25.801 21.8756L28.6336 8.40942L32.0144 5.97046ZM7.2994 47.9987L13.0868 24.776L14.5186 58.9197L14.4655 59.7455L7.2994 47.9987ZM17.5478 60.4999H22.5557C23.4188 60.4999 24.1182 59.7998 24.1182 58.9374C24.1182 58.0743 23.4188 57.3749 22.5557 57.3749H17.5814L15.7998 14.8883L24.891 11.0211L22.5332 22.2308C22.4056 22.8369 22.6485 23.4613 23.1527 23.8226L28.8619 27.9114L26.2429 30.8185C25.8022 31.308 25.7155 32.0209 26.0256 32.6013L38.4377 55.8105V76.875C38.4371 76.875 38.4389 76.875 38.4377 76.875H16.4931L17.5478 60.4999ZM41.5627 76.875V55.8105L53.9748 32.6013C54.2855 32.0209 54.1988 31.308 53.7581 30.8185L52.3189 29.2212H58.8674C59.7304 29.2212 60.4299 28.5217 60.4299 27.6587C60.4299 26.7957 59.7304 26.0962 58.8674 26.0962H53.6733L56.8484 23.8226C57.3519 23.4613 57.5948 22.8369 57.4673 22.2308L55.1101 11.0211L64.2013 14.8883L62.419 57.3749H56.18C55.317 57.3749 54.6175 58.0743 54.6175 58.9374C54.6175 59.7998 55.317 60.4999 56.18 60.4999H62.4526L63.5079 76.8744L41.5627 76.875ZM65.5355 59.7449L65.4824 58.9191L66.9143 24.7766L72.7016 47.9987L65.5355 59.7449Z" fill="black"/>
<path d="M27.1245 57.375H27.0879C26.2249 57.375 25.5254 58.0745 25.5254 58.9375C25.5254 59.8005 26.2249 60.5 27.0879 60.5H27.1245C27.9875 60.5 28.687 59.8005 28.687 58.9375C28.687 58.0745 27.9875 57.375 27.1245 57.375Z" fill="black"/>
<path d="M51.6479 57.375H51.6107C50.7477 57.375 50.0482 58.0745 50.0482 58.9375C50.0482 59.8005 50.7477 60.5 51.6107 60.5H51.6479C52.511 60.5 53.2104 59.8005 53.2104 58.9375C53.2104 58.0745 52.511 57.375 51.6479 57.375Z" fill="black"/>
</svg>
