<svg width="80" height="80" viewBox="0 0 80 80" fill="none" xmlns="http://www.w3.org/2000/svg">
<g clip-path="url(#clip0)">
<path fill-rule="evenodd" clip-rule="evenodd" d="M75.0438 28.5621L51.4378 4.95673L50.4387 3.95758C49.5274 3.04572 48.0357 3.04572 47.1245 3.95758C46.2126 4.86884 46.2126 6.36053 47.1245 7.27179L48.1224 8.27032L72.7281 32.876C73.64 33.7873 75.131 33.7873 76.0429 32.876C76.9542 31.9642 76.9542 30.4731 76.0429 29.5612L75.0438 28.5621Z" fill="#99C454"/>
<path fill-rule="evenodd" clip-rule="evenodd" d="M75.0439 28.562C77.3029 25.5725 78.4344 22.0019 78.4375 18.4301V18.3996C78.4351 15.6091 77.7429 12.8198 76.3629 10.307C72.3486 8.10176 67.6263 7.65437 63.3246 8.96602C61.4783 9.52876 59.7095 10.4156 58.1079 11.6259L75.0439 28.562Z" fill="#FFBD50"/>
<path fill-rule="evenodd" clip-rule="evenodd" d="M54.7925 14.9402C52.8717 17.4817 51.7664 20.4425 51.4758 23.4674L63.2025 35.1935C66.2274 34.9036 69.1882 33.7982 71.7297 31.8774L54.7925 14.9402Z" fill="#FFBD50"/>
<path d="M19.7375 66.632C22.5366 68.1151 26.0723 67.578 28.6206 65.3557L58.6199 39.1899L63.2019 35.1934L51.1755 23.167L21.0131 57.7489C18.7915 60.2965 18.2537 63.8329 19.7375 66.632Z" fill="#F1DBC8"/>
<path fill-rule="evenodd" clip-rule="evenodd" d="M43.3325 41.087C42.1118 42.3071 40.1331 42.3071 38.913 41.087C37.6923 39.8663 37.6923 37.8876 38.913 36.6675L33.3887 42.1918C32.1735 43.407 32.1735 45.3955 33.3887 46.6113C34.6039 47.8265 36.593 47.8265 37.8083 46.6113L43.3325 41.087Z" fill="#C78F70"/>
<path fill-rule="evenodd" clip-rule="evenodd" d="M43.3323 41.087L43.3335 41.0858C43.3329 41.0858 43.3329 41.0864 43.3323 41.087ZM38.9127 36.6674C40.1261 35.454 42.1098 35.4522 43.3256 36.6607C43.328 36.6631 43.3299 36.665 43.3323 36.6674C43.3347 36.6699 43.3372 36.6729 43.3402 36.6754C43.3415 36.6772 43.3433 36.679 43.3451 36.6802C44.5176 37.8668 44.5426 39.7784 43.4202 40.9954C43.4196 40.9954 43.4196 40.996 43.4196 40.996L43.3335 41.0858C43.3329 41.0858 43.3323 41.0864 43.3317 41.087C42.1116 42.3071 40.1328 42.3071 38.9127 41.087C37.6927 39.8663 37.6927 37.8875 38.9127 36.6674Z" fill="#99C454"/>
<path fill-rule="evenodd" clip-rule="evenodd" d="M14.6737 62.0142L17.9879 65.329L4.87878 78.4381L1.56458 75.1233L14.6737 62.0142Z" fill="#99C454"/>
<path d="M77.0726 28.3813C79.1978 25.0823 80.219 21.1651 79.9608 17.2088C79.6696 12.7514 77.7684 8.55528 74.6062 5.39367C71.1278 1.91589 66.5038 0 61.585 0C59.8125 0 58.0498 0.262451 56.3597 0.762327C56.2481 0.78369 56.1382 0.81848 56.0326 0.864256C54.4786 1.35498 52.9912 2.04773 51.6198 2.92846L51.5441 2.85278C50.808 2.1167 49.8272 1.71081 48.7816 1.71081C47.7367 1.71081 46.7553 2.1167 46.0192 2.85278C44.4964 4.3756 44.4964 6.85362 46.0192 8.37645L46.0937 8.45091C44.6026 10.7654 43.6498 13.3899 43.3092 16.1377L13.4668 50.3527C10.4657 53.7926 10.169 58.5204 12.5567 61.9188L0.457763 74.0178C-0.152588 74.6281 -0.152588 75.6175 0.457763 76.2279L3.77197 79.5421C4.07714 79.8473 4.47692 79.9998 4.87731 79.9998C5.27709 79.9998 5.67687 79.8473 5.98204 79.5421L18.0816 67.4425C19.5489 68.4728 21.2994 69.0294 23.1414 69.0294C25.4913 69.0294 27.8021 68.1432 29.6478 66.5331L63.8622 36.6906C66.6094 36.35 69.2345 35.3979 71.5489 33.9062L71.6234 33.9806C72.3595 34.7167 73.3403 35.122 74.3852 35.122C75.4308 35.122 76.4116 34.7167 77.1477 33.9806C78.6705 32.4572 78.6705 29.9792 77.1477 28.4564L77.0726 28.3813ZM56.2328 4.08385L60.0835 7.93455C60.3887 8.23973 60.7885 8.39232 61.1882 8.39232C61.5886 8.39232 61.9884 8.23973 62.293 7.93455C62.9033 7.32481 62.9033 6.33544 62.293 5.72509L59.7972 3.22875C60.3862 3.161 60.9825 3.12499 61.585 3.12499C65.6688 3.12499 69.5085 4.71557 72.3961 7.60313C77.3302 12.5366 78.2371 20.2075 74.8009 26.1102L53.8878 5.19652C54.6398 4.75646 55.4235 4.38598 56.2328 4.08385ZM4.87731 76.2273L3.77258 75.1231L14.6716 64.2235L15.7763 65.3282L4.87731 76.2273ZM58.6925 37.0532L55.1909 33.5516C54.5806 32.9418 53.5912 32.9418 52.9809 33.5516C52.3711 34.1619 52.3711 35.1513 52.9809 35.7616L56.3317 39.1125L27.5933 64.1783C26.3171 65.2916 24.7363 65.9044 23.1414 65.9044C21.5918 65.9044 20.2002 65.3325 19.1186 64.251L15.7489 60.8812C13.5205 58.6522 13.5516 55.0097 15.8215 52.4065L44.8846 19.0857L60.9148 35.1159L58.6925 37.0532ZM63.7706 33.5522L46.4477 16.2292C46.7278 14.2804 47.3791 12.4115 48.3642 10.7214L69.2784 31.6357C67.5884 32.6208 65.7195 33.272 63.7706 33.5522ZM74.9376 31.7706C74.7411 31.9677 74.5073 31.9964 74.3852 31.9964C74.2638 31.9964 74.03 31.9671 73.8329 31.7706L48.2293 6.16698C47.9296 5.86791 47.9296 5.36193 48.2293 5.06225C48.4258 4.86571 48.6596 4.83642 48.7816 4.83642C48.9031 4.83642 49.1369 4.86571 49.334 5.06225L50.3332 6.06139L73.9385 29.6673C73.9391 29.6673 73.9397 29.6679 73.9403 29.6685L74.9376 30.6658C75.2373 30.9655 75.2373 31.4715 74.9376 31.7706Z" fill="black"/>
<path d="M44.6409 41.9731C44.6806 41.9286 44.7197 41.8834 44.7569 41.8376C44.7618 41.8322 44.766 41.8267 44.7703 41.8212C45.4435 40.9899 45.8104 39.962 45.8104 38.8774C45.8104 37.791 45.4423 36.7614 44.7673 35.9294C44.7636 35.9258 44.7606 35.9215 44.7575 35.9172C44.7184 35.8696 44.6782 35.8239 44.6379 35.7775C44.6251 35.7634 44.6135 35.7488 44.6006 35.7347C44.5677 35.6987 44.5335 35.6639 44.4993 35.6279C44.4786 35.6066 44.4584 35.584 44.4371 35.5626C44.373 35.4985 44.3071 35.4375 44.2399 35.3777C43.3806 34.6099 42.2844 34.1899 41.1229 34.1899C39.951 34.1899 38.8456 34.6166 37.9826 35.3966C37.9234 35.4503 37.8648 35.5059 37.808 35.5626L32.2838 41.0869C30.4564 42.9149 30.4564 45.8885 32.2838 47.7166C33.1669 48.5991 34.3437 49.0856 35.5986 49.0856C36.8528 49.0856 38.0296 48.5991 38.9128 47.7166L44.4371 42.1923C44.4597 42.1697 44.4804 42.1465 44.5024 42.1239C44.5353 42.0891 44.5689 42.0555 44.6006 42.0201C44.6147 42.0043 44.6275 41.9884 44.6409 41.9731ZM41.1229 40.4393C40.7054 40.4393 40.3129 40.277 40.0175 39.9816C39.7227 39.6868 39.5604 39.2943 39.5604 38.8768C39.5604 38.46 39.7227 38.0675 40.0181 37.7721C40.0468 37.7434 40.0773 37.7172 40.1078 37.6903C40.3892 37.4504 40.7444 37.3186 41.1229 37.3186C41.5428 37.3186 41.9346 37.4797 42.2276 37.7721C42.2654 37.8105 42.3008 37.8496 42.3344 37.8905C42.3356 37.8923 42.3369 37.8942 42.3387 37.896C42.7983 38.4655 42.7989 39.2845 42.3411 39.8546C42.3387 39.8577 42.3369 39.8607 42.3338 39.8638C42.3008 39.9047 42.2654 39.9443 42.2276 39.9822L42.2258 39.9834C41.931 40.2776 41.5391 40.4393 41.1229 40.4393ZM36.7033 45.5065C36.4103 45.7988 36.0179 45.96 35.5986 45.96C35.1786 45.96 34.7862 45.7988 34.4938 45.5059C33.8847 44.8973 33.8847 43.9055 34.4938 43.2964L36.8913 40.8989C37.1183 41.3719 37.426 41.809 37.808 42.1917C38.1901 42.5737 38.6271 42.8813 39.1008 43.1084L36.7033 45.5065Z" fill="black"/>
<path d="M65.4708 8.90249C64.8623 8.29092 63.8735 8.28786 63.2613 8.89638C62.6491 9.5049 62.6467 10.4943 63.2546 11.1059L63.2808 11.1321C63.5866 11.4397 63.9876 11.5929 64.3892 11.5929C64.7872 11.5929 65.1857 11.4416 65.4909 11.1388C66.1025 10.5303 66.1055 9.54092 65.497 8.92873L65.4708 8.90249Z" fill="black"/>
<path d="M49.81 32.591C50.1146 32.8937 50.5131 33.0451 50.9117 33.0451C51.3127 33.0451 51.7143 32.8913 52.0195 32.5842C52.628 31.9721 52.6249 30.9827 52.0134 30.3742L51.9871 30.3485C51.3749 29.74 50.3856 29.7431 49.777 30.3546C49.1685 30.9668 49.1716 31.9562 49.7838 32.5647L49.81 32.591Z" fill="black"/>
</g>
<defs>
<clipPath id="clip0">
<rect width="80" height="80" fill="white"/>
</clipPath>
</defs>
</svg>
