<svg width="80" height="80" viewBox="0 0 80 80" fill="none" xmlns="http://www.w3.org/2000/svg">
<g clip-path="url(#clip0)">
<path fill-rule="evenodd" clip-rule="evenodd" d="M23.3749 11.1707C19.4119 10.5017 15.4775 9.66675 11.5804 8.67432L13.3706 15.3742L14.8745 21.0028L17.9165 17.4835L23.3749 11.1707Z" fill="#DB0090"/>
<path fill-rule="evenodd" clip-rule="evenodd" d="M40.2568 13.022C39.2711 12.9713 38.2866 12.9072 37.3027 12.8364L39.6349 17.848L42.4718 23.943L44.6007 20.3773L48.8799 13.2118C46.0064 13.2325 43.131 13.1697 40.2568 13.022Z" fill="#FFBD50"/>
<path fill-rule="evenodd" clip-rule="evenodd" d="M62.7063 12.4517L65.7031 16.7382L69.8364 22.6513L71.3819 18.5924L74.3518 10.7927C70.4913 11.5032 66.6058 12.0537 62.7063 12.4517Z" fill="#BDD377"/>
<path fill-rule="evenodd" clip-rule="evenodd" d="M17.6565 39.3196C14.7244 38.9125 11.8093 38.3839 8.91626 37.74L10.1321 41.8117L11.6055 46.7451L13.7179 44.153L17.6565 39.3196Z" fill="#76C8D6"/>
<path fill-rule="evenodd" clip-rule="evenodd" d="M36.761 40.2899C33.8753 40.3955 30.9901 40.3839 28.1111 40.2625L30.1179 44.2651L32.2114 48.44L33.7214 45.7343L36.761 40.2899Z" fill="#99C454"/>
<path fill-rule="evenodd" clip-rule="evenodd" d="M47.1696 39.4093L49.7483 42.8779L52.6609 46.7958L53.6967 43.8167L55.7444 37.928C52.9093 38.5353 50.0486 39.0278 47.1696 39.4093Z" fill="#DB0090"/>
<path fill-rule="evenodd" clip-rule="evenodd" d="M69.3009 38.1349L72.5864 41.2385L73.035 38.4608L74.0293 32.3054C71.4371 33.3577 68.8077 34.3074 66.149 35.157L69.3009 38.1349Z" fill="#99C454"/>
<path fill-rule="evenodd" clip-rule="evenodd" d="M59.5889 65.5933L62.4472 70.1203L63.7527 67.1222L66.2435 61.4014C63.3285 61.7975 60.4006 62.0728 57.4667 62.2339L59.5889 65.5933Z" fill="#76C8D6"/>
<path fill-rule="evenodd" clip-rule="evenodd" d="M47.1369 62.3152C44.9902 62.2303 42.8449 62.0826 40.7037 61.8721C39.953 61.7976 39.2041 61.7134 38.4558 61.6243L39.9066 65.1662L41.947 70.1479L43.6902 67.5166L47.1369 62.3152Z" fill="#BDD377"/>
<path fill-rule="evenodd" clip-rule="evenodd" d="M28.1614 59.8981C25.3422 59.2853 22.5486 58.559 19.7849 57.7258L20.7114 61.9843L21.7307 66.6675L23.8639 64.422L28.1614 59.8981Z" fill="#FFBD50"/>
<path d="M69.0851 59.4122C59.7602 60.9515 50.2625 61.2622 40.8545 60.3351C31.4477 59.4086 22.1929 57.2497 13.3471 53.9196C12.5482 53.6194 11.6583 54.0228 11.358 54.8211C11.0571 55.6189 11.4605 56.51 12.2588 56.8103C12.9797 57.0813 13.7042 57.3425 14.4305 57.5989L17.1728 70.2051C17.2943 70.7636 17.7148 71.2097 18.2659 71.3635C18.4033 71.402 18.543 71.4209 18.6816 71.4209C19.0991 71.4209 19.5056 71.2512 19.801 70.9399L28.6877 61.5851C30.191 61.8994 31.7004 62.1857 33.2165 62.4377L38.1048 74.3738C38.3215 74.903 38.8135 75.2692 39.3823 75.3253C39.4336 75.3302 39.4836 75.3327 39.5343 75.3327C40.0482 75.3327 40.5334 75.0757 40.8209 74.6411L47.9468 63.8873C49.1187 63.9246 50.2905 63.9447 51.4624 63.9447C51.8274 63.9447 52.1918 63.9429 52.5562 63.9392L59.4434 74.8444C59.7272 75.2948 60.2216 75.5646 60.7483 75.5646C60.7874 75.5646 60.8271 75.5628 60.8667 75.5597C61.4368 75.5164 61.9361 75.1611 62.1643 74.6369L67.3139 62.8107C68.0732 62.7014 68.8312 62.5842 69.5887 62.4597C70.4297 62.3205 70.9992 61.5259 70.8607 60.6842C70.7215 59.8431 69.928 59.2724 69.0851 59.4122ZM19.5709 66.6986L17.8393 58.7402C20.263 59.5086 22.7124 60.1922 25.1812 60.7922L19.5709 66.6986ZM39.8578 70.5048L36.7712 62.9693C38.0286 63.1372 39.2889 63.2843 40.5517 63.4088C41.8182 63.5333 43.0865 63.6346 44.3555 63.7164L39.8578 70.5048ZM60.4975 70.73L56.1499 63.8452C58.6878 63.7384 61.222 63.5443 63.7482 63.2642L60.4975 70.73Z" fill="black"/>
<path d="M76.7298 29.4794C75.6733 29.9494 74.6106 30.401 73.5425 30.8362C73.4784 30.8576 73.4162 30.8832 73.3558 30.9125C69.4898 32.4787 65.5518 33.8147 61.5534 34.9195C61.4636 34.9359 61.3751 34.9597 61.2891 34.9921C59.3921 35.5115 57.4811 35.9778 55.5585 36.3916C55.4645 36.4032 55.3723 36.424 55.2826 36.4521C51.2238 37.3151 47.1106 37.9431 42.9559 38.3356C42.8985 38.338 42.8412 38.3429 42.7844 38.3521C41.7871 38.4442 40.7879 38.5248 39.7864 38.5901C38.7878 38.6554 37.7905 38.7049 36.7932 38.7421C36.7358 38.7415 36.6784 38.7433 36.6217 38.7488C32.4499 38.899 28.2898 38.8105 24.1528 38.4815C24.0612 38.465 23.9678 38.4571 23.8738 38.4577C21.9128 38.2965 19.9572 38.0817 18.0077 37.8138C17.9192 37.793 17.8289 37.7802 17.7386 37.7759C13.6303 37.1991 9.5507 36.3855 5.51382 35.3345C5.45035 35.3131 5.38565 35.296 5.31973 35.2832C4.20462 34.9909 3.09194 34.6802 1.98354 34.3518C1.16567 34.1083 0.306904 34.5752 0.0639834 35.3931C-0.178327 36.2104 0.287373 37.0697 1.10525 37.3127C2.00002 37.5782 2.89663 37.8308 3.79568 38.0738L7.48526 50.4273C7.64884 50.9754 8.10233 51.3886 8.66324 51.5003C8.76395 51.5205 8.86527 51.5302 8.96537 51.5302C9.42374 51.5302 9.86564 51.3251 10.1623 50.9614L18.3038 40.9699C19.8315 41.1701 21.3629 41.3385 22.8979 41.4747L28.6737 52.9951C28.93 53.5065 29.4482 53.8343 30.0201 53.8471H30.0543C30.6128 53.8471 31.1297 53.545 31.4026 53.0555L37.6892 41.7951C38.4552 41.7609 39.2212 41.7218 39.9872 41.6718C40.7574 41.6217 41.5265 41.5632 42.2937 41.4972L49.986 51.8445C50.2802 52.2394 50.7416 52.4671 51.225 52.4671C51.3031 52.4671 51.3812 52.4616 51.46 52.4494C52.0252 52.3627 52.4963 51.9703 52.6837 51.4301L56.9171 39.2572C58.421 38.9228 59.9176 38.5566 61.4069 38.1598L70.7752 47.0099C71.0663 47.2852 71.4472 47.4317 71.8354 47.4317C72.0014 47.4317 72.1692 47.4048 72.3316 47.3499C72.873 47.1668 73.2685 46.6987 73.36 46.1341L75.4157 33.4046C76.2757 33.0475 77.1326 32.6801 77.9853 32.301C78.7647 31.9544 79.1151 31.0419 78.7684 30.2625C78.4217 29.4837 77.5098 29.1327 76.7298 29.4794ZM9.6099 46.7493L7.28202 38.9539C9.757 39.5368 12.246 40.0348 14.7466 40.4456L9.6099 46.7493ZM30.1275 49.004L26.4825 41.7341C28.5522 41.8506 30.6268 41.9092 32.7057 41.9092C33.1683 41.9092 33.6316 41.9037 34.0948 41.8982L30.1275 49.004ZM50.7245 47.6612L45.8704 41.1316C48.3954 40.8332 50.9052 40.4499 53.3954 39.9805L50.7245 47.6612ZM70.7758 42.7625L64.8639 37.1772C67.2907 36.4453 69.6943 35.6299 72.0728 34.7302L70.7758 42.7625Z" fill="black"/>
<path d="M79.9656 9.65453C79.788 8.82079 78.9671 8.28917 78.1333 8.46739C65.7249 11.1175 53.0082 12.1313 40.336 11.4795C27.6639 10.8282 15.118 8.51561 3.0471 4.60691C2.23594 4.34385 1.36497 4.78879 1.10252 5.59995C0.839453 6.41111 1.2844 7.28209 2.09556 7.54515C3.16551 7.89122 4.23851 8.22447 5.31517 8.54613L9.84338 25.495C9.99109 26.0474 10.4318 26.4734 10.9896 26.6016C11.1044 26.6278 11.2203 26.6407 11.3357 26.6407C11.7782 26.6407 12.2067 26.4496 12.5033 26.1066L23.9779 12.8339C26.1905 13.1934 28.4115 13.504 30.6387 13.7634L38.0411 29.6686C38.2828 30.1868 38.7912 30.5298 39.3619 30.5591C39.3887 30.5603 39.415 30.561 39.4418 30.561C39.9832 30.561 40.488 30.2765 40.7669 29.8084L49.7617 14.7461C52.0041 14.7162 54.2441 14.6326 56.4817 14.5013L66.536 28.8819C66.8265 29.2981 67.3008 29.5417 67.8007 29.5417C67.8641 29.5417 67.9276 29.5374 67.9911 29.5295C68.5587 29.4593 69.0409 29.0808 69.2441 28.5468L75.4881 12.1484C76.5867 11.9397 77.6841 11.7212 78.7785 11.4874C79.6122 11.3092 80.1438 10.4889 79.9656 9.65453ZM12.0742 21.8805L8.77587 9.5349C12.6254 10.5841 16.5139 11.477 20.4324 12.2125L12.0742 21.8805ZM39.6109 25.7215L34.219 14.137C36.2015 14.3188 38.1876 14.4617 40.1773 14.5642C42.1726 14.6667 44.1678 14.7272 46.163 14.7491L39.6109 25.7215ZM67.3954 24.7223L60.0724 14.2474C64.0464 13.9172 68.007 13.4265 71.9437 12.7771L67.3954 24.7223Z" fill="black"/>
</g>
<defs>
<clipPath id="clip0">
<rect width="80" height="80" fill="white"/>
</clipPath>
</defs>
</svg>
