<svg width="16" height="16" viewBox="0 0 16 16" fill="none" xmlns="http://www.w3.org/2000/svg">
<path opacity="0.500391" fill-rule="evenodd" clip-rule="evenodd" d="M12.2437 4.27671C12.2437 6.63884 10.3278 8.55481 7.9656 8.55481C5.60344 8.55481 3.6875 6.62573 3.6875 4.27671C3.6875 1.92769 5.60347 0.0117188 7.9656 0.0117188C10.3277 0.0117188 12.2437 1.91458 12.2437 4.27671ZM11.1151 4.27671C11.1151 2.54446 9.69783 1.12718 7.9656 1.12718C6.23334 1.12718 4.81607 2.54443 4.81607 4.27668C4.81607 6.00894 6.23337 7.42622 7.9656 7.42622C9.69783 7.42622 11.1151 6.00897 11.1151 4.27671Z" fill="white"/>
<path opacity="0.500391" fill-rule="evenodd" clip-rule="evenodd" d="M15.4195 15.2343H0.564284C0.249333 15.2343 0 14.985 0 14.6701C0 11.7042 2.41464 9.30273 5.36732 9.30273H10.6165C13.5823 9.30273 15.9838 11.7174 15.9838 14.6701C15.9838 14.985 15.7345 15.2343 15.4195 15.2343ZM10.6165 10.4313H5.36732C3.21515 10.4313 1.44352 12.0455 1.16794 14.1057H14.8159C14.5403 12.0323 12.7687 10.4313 10.6165 10.4313Z" fill="white"/>
</svg>
