<svg width="16" height="16" viewBox="0 0 16 16" fill="none" xmlns="http://www.w3.org/2000/svg">
<path opacity="0.497266" fill-rule="evenodd" clip-rule="evenodd" d="M14.1283 4.18949C14.087 3.91387 13.8531 3.72093 13.5778 3.72093H10.4125V2.4255C10.4125 1.08872 9.3253 0 7.99037 0C6.65543 0 5.56821 1.08872 5.56821 2.4255V3.72093H2.40289C2.12764 3.72093 1.89369 3.91387 1.8524 4.18949L0.00825735 15.3523C-0.0192672 15.5177 0.0220196 15.683 0.132118 15.8071C0.242216 15.9311 0.393601 16 0.558748 16H15.422H15.4357C15.7523 16 16 15.7519 16 15.435C16 15.3661 15.9862 15.3109 15.9725 15.2558L14.1283 4.18949ZM6.69671 2.4255C6.69671 1.70887 7.27473 1.13006 7.99037 1.13006C8.706 1.13006 9.28402 1.70887 9.28402 2.4255V3.72093H6.69671V2.4255ZM2.88457 4.85099L1.21934 14.8837H14.7614L13.0962 4.85099H10.4125V8.00689C10.4125 8.32386 10.1648 8.57192 9.84827 8.57192C9.53174 8.57192 9.28402 8.32386 9.28402 8.00689V4.85099H6.69671V8.00689C6.69671 8.32386 6.44899 8.57192 6.13246 8.57192C5.81593 8.57192 5.56821 8.32386 5.56821 8.00689V4.85099H2.88457Z" fill="white"/>
</svg>
