<svg width="400" height="400" viewBox="0 0 16 16" fill="none" xmlns="http://www.w3.org/2000/svg">
<path opacity="0.296038" fill-rule="evenodd" clip-rule="evenodd" d="M10.1743 10.9673C9.10791 11.8701 7.74023 12.4033 6.23584 12.4033C2.84424 12.4033 0.0683594 9.64111 0.0683594 6.23584C0.0683594 2.84424 2.84424 0.0683594 6.23584 0.0683594C9.64111 0.0683594 12.4033 2.83057 12.4033 6.23584C12.4033 7.72656 11.8564 9.10791 10.9673 10.1743L15.7539 14.9604C15.9727 15.1797 15.9727 15.5352 15.7539 15.7539C15.6445 15.8633 15.5078 15.918 15.3574 15.918C15.207 15.918 15.0703 15.8633 14.9604 15.7539L10.1743 10.9673ZM11.2822 6.23633C11.2822 3.45996 9.02588 1.18994 6.23633 1.18994C3.45996 1.18994 1.18994 3.45996 1.18994 6.23633C1.18994 9.01221 3.44629 11.2822 6.23633 11.2822C9.02588 11.2822 11.2822 9.02588 11.2822 6.23633Z" fill="white"/>
</svg>
