<svg width="16" height="16" viewBox="0 0 16 16" fill="none" xmlns="http://www.w3.org/2000/svg">
<g opacity="0.5">
<path d="M13.469 9.53763C13.1198 9.17563 12.6986 8.98208 12.2521 8.98208C11.8093 8.98208 11.3845 9.17204 11.0208 9.53405L9.88315 10.6631C9.78954 10.6129 9.69593 10.5663 9.60593 10.5197C9.47632 10.4552 9.35391 10.3943 9.2495 10.3297C8.18382 9.65591 7.21535 8.77778 6.28648 7.64158C5.83645 7.07527 5.53402 6.59857 5.31441 6.1147C5.60963 5.84588 5.88325 5.56631 6.14967 5.29749C6.25048 5.19713 6.35128 5.09319 6.45209 4.99283C7.20815 4.24014 7.20815 3.26523 6.45209 2.51254L5.46922 1.53405C5.35761 1.42294 5.2424 1.30824 5.13439 1.19355C4.91838 0.971326 4.69156 0.741935 4.45754 0.526882C4.10832 0.182796 3.69069 0 3.25145 0C2.81222 0 2.38739 0.182796 2.02736 0.526882C2.02376 0.530466 2.02376 0.530466 2.02016 0.53405L0.796072 1.76344C0.335238 2.22222 0.0724188 2.78136 0.0148146 3.43011C-0.0715918 4.4767 0.238031 5.45161 0.475649 6.08961C1.05889 7.65591 1.93016 9.10753 3.22985 10.6631C4.80677 12.5376 6.70411 14.0179 8.87147 15.0609C9.69953 15.4516 10.8048 15.914 12.0397 15.9928C12.1153 15.9964 12.1945 16 12.2665 16C13.0982 16 13.7966 15.7025 14.3439 15.1111C14.3475 15.1039 14.3547 15.1004 14.3583 15.0932C14.5455 14.8674 14.7615 14.6631 14.9883 14.4444C15.1431 14.2975 15.3015 14.1434 15.4564 13.9821C15.8128 13.6129 16 13.1828 16 12.7419C16 12.2975 15.8092 11.871 15.4456 11.5125L13.469 9.53763ZM14.7579 13.3118C14.7543 13.3118 14.7543 13.3154 14.7579 13.3118C14.6175 13.4624 14.4735 13.5986 14.3187 13.7491C14.0847 13.9713 13.847 14.2043 13.6238 14.466C13.2602 14.853 12.8318 15.0358 12.2701 15.0358C12.2161 15.0358 12.1585 15.0358 12.1045 15.0323C11.0352 14.9642 10.0416 14.5484 9.2963 14.1935C7.25855 13.2115 5.46922 11.8172 3.98231 10.0502C2.75462 8.57706 1.93376 7.21505 1.39012 5.75269C1.05529 4.86022 0.932883 4.16487 0.986887 3.50896C1.02289 3.08961 1.1849 2.74194 1.48372 2.44444L2.71141 1.22222C2.88783 1.05735 3.07504 0.967742 3.25866 0.967742C3.48547 0.967742 3.66909 1.10394 3.78429 1.21864C3.78789 1.22222 3.79149 1.22581 3.79509 1.22939C4.01471 1.43369 4.22353 1.64516 4.44314 1.87097C4.55475 1.98566 4.66996 2.10036 4.78517 2.21864L5.76804 3.19713C6.14967 3.57706 6.14967 3.92832 5.76804 4.30824C5.66363 4.41219 5.56283 4.51613 5.45842 4.61649C5.156 4.92473 4.86797 5.21147 4.55475 5.49104C4.54755 5.49821 4.54035 5.50179 4.53675 5.50896C4.22713 5.8172 4.28473 6.11828 4.34954 6.32258C4.35314 6.33333 4.35674 6.34409 4.36034 6.35484C4.61596 6.97133 4.97598 7.55197 5.52322 8.24373L5.52682 8.24731C6.5205 9.46595 7.56817 10.4158 8.72386 11.1434C8.87147 11.2366 9.02268 11.3118 9.16669 11.3835C9.2963 11.448 9.41871 11.509 9.52312 11.5735C9.53752 11.5806 9.55192 11.5914 9.56632 11.5986C9.68873 11.6595 9.80394 11.6882 9.92275 11.6882C10.2216 11.6882 10.4088 11.5018 10.47 11.4409L11.7013 10.2151C11.8237 10.0932 12.0181 9.94624 12.2449 9.94624C12.4681 9.94624 12.6518 10.086 12.7634 10.2079C12.767 10.2115 12.767 10.2115 12.7706 10.2151L14.7543 12.19C15.1251 12.5556 15.1251 12.9319 14.7579 13.3118Z" fill="white"/>
</g>
</svg>
